<?xml version="1.0" encoding="UTF-8" standalone="no"?>
<!DOCTYPE svg PUBLIC "-//W3C//DTD SVG 1.1//EN" "http://www.w3.org/Graphics/SVG/1.1/DTD/svg11.dtd">
<svg version="1.1" xmlns="http://www.w3.org/2000/svg" xmlns:xlink="http://www.w3.org/1999/xlink" preserveAspectRatio="xMidYMid meet" viewBox="0 0 640 640" width="640" height="640"><defs><path d="M0 0L640 0L640 339.36L0 339.36L0 0Z" id="d1jRvJqdCb"></path><colorGradient id="gradientd1eQDodcax" gradientUnits="userSpaceOnUse"><stop style="stop-color: #ffffff;stop-opacity: 0.21" offset="0%"></stop><stop style="stop-color: #010000;stop-opacity: 1" offset="100%"></stop></colorGradient><path d="M535.58 147.28C536.54 182.94 535.9 213.94 517.31 243.01C498.83 272.14 462.3 299.22 415.99 309.8C369.57 320.31 313.37 314.25 261.48 302.01C209.69 289.84 162.19 271.41 125.23 243.54C88.38 215.67 61.95 178.35 82.79 153.27C103.53 128.19 171.54 115.35 221.61 98.86C271.68 82.36 303.92 62.27 352.27 50.36C400.62 38.46 465.09 34.8 498.62 53.09C532.14 71.38 534.61 111.63 535.58 147.28Z" id="c16muDENxY"></path><path d="M571.97 22.62C580.24 25.47 590.19 28.05 595.52 33.91C600.87 39.77 601.6 48.94 596.79 53.29C591.98 57.64 581.64 57.19 572.65 58.74C563.68 60.3 556.02 63.88 548.16 62.2C540.3 60.53 532.24 53.62 526.93 45.05C521.63 36.46 519.12 26.22 523.5 20.68C527.9 15.15 539.2 14.33 548.16 15.49C557.11 16.64 563.69 19.77 571.97 22.62Z" id="f49Um1P4G"></path><path d="M599.9 21.85C602.96 22.46 606.78 22.62 608.13 25.68C609.48 28.73 608.37 34.68 605.67 38.31C602.96 41.93 598.65 43.23 594.61 45.65C590.57 48.07 586.78 51.62 583.71 51.72C580.64 51.83 578.3 48.51 577.38 43.65C576.46 38.79 576.98 32.4 579.69 28.06C582.41 23.72 587.32 21.43 590.93 20.81C594.54 20.19 596.84 21.24 599.9 21.85Z" id="aQnrEpgCA"></path><path d="M318.11 140.75C353.84 152.62 396.97 162.98 419.37 189.17C441.86 215.34 443.66 257.45 421.98 278.21C400.3 298.96 355.19 298.47 315.65 306.97C276.19 315.5 242.16 333.12 208.08 326.57C173.96 320.09 139.75 289.51 117.85 250.81C95.99 212.06 86.55 165.33 106.55 139.15C126.61 113.01 176.15 107.53 215.12 111.49C254.08 115.45 282.38 128.89 318.11 140.75Z" id="agU5lIIWK"></path><path d="M179.5 243.63C179.58 243.59 179.68 243.62 179.73 243.71C179.74 243.74 179.71 243.68 179.73 243.71C179.77 243.79 179.73 243.9 179.65 243.94C143.67 261.34 35.91 313.45 -0.06 330.85C-0.14 330.89 -0.25 330.85 -0.29 330.77C-0.3 330.74 -0.27 330.8 -0.29 330.77C-0.33 330.68 -0.29 330.58 -0.21 330.54C35.76 313.14 143.52 261.02 179.5 243.63Z" id="a2l4dnOoGe"></path><path d="M149.36 212.32C149.45 212.28 149.48 212.17 149.44 212.09C149.43 212.06 149.46 212.12 149.44 212.09C149.4 212 149.3 211.97 149.21 212.01C119.81 226.22 31.78 268.8 2.38 283.02C2.3 283.06 2.26 283.16 2.3 283.25C2.32 283.28 2.29 283.22 2.3 283.25C2.34 283.33 2.45 283.37 2.53 283.33C31.93 269.11 119.96 226.54 149.36 212.32Z" id="f2WKRcuzU4"></path><path d="M129.54 244.61C129.62 244.56 129.66 244.46 129.62 244.38C129.6 244.34 129.63 244.41 129.62 244.38C129.58 244.29 129.47 244.25 129.39 244.29C103.91 256.61 27.65 293.5 2.17 305.82C2.09 305.86 2.05 305.96 2.09 306.05C2.11 306.08 2.08 306.02 2.09 306.05C2.14 306.13 2.24 306.17 2.32 306.13C27.8 293.81 104.06 256.92 129.54 244.61Z" id="fJDs9MZLp"></path><path d="M139.95 287.97C140.04 287.93 140.07 287.82 140.03 287.74C140.02 287.71 140.05 287.77 140.03 287.74C139.99 287.65 139.89 287.62 139.8 287.66C118.81 297.81 55.98 328.19 34.99 338.35C34.91 338.39 34.87 338.49 34.91 338.58C34.93 338.61 34.9 338.55 34.91 338.58C34.95 338.66 35.06 338.7 35.14 338.66C56.13 328.5 118.96 298.12 139.95 287.97Z" id="avrIQxaP3"></path><path d="M469.84 321.59C465.37 318.69 459.55 315.94 458.78 310.56C457.99 305.18 462.26 297.15 467.99 293.6C473.73 290.05 480.94 290.96 488.22 290.06C495.49 289.15 502.87 286.42 507.65 288.28C512.44 290.12 514.64 296.55 513.97 304.3C513.3 312.06 509.76 321.1 503.71 325.71C497.65 330.32 489.09 330.46 483.24 329.01C477.4 327.55 474.3 324.49 469.84 321.59Z" id="d1Pq7UbipS"></path><path d="M179.5 173.2C179.58 173.16 179.68 173.2 179.73 173.28C179.74 173.31 179.71 173.25 179.73 173.28C179.77 173.37 179.73 173.47 179.65 173.51C143.67 190.91 35.91 243.02 -0.06 260.42C-0.14 260.46 -0.25 260.43 -0.29 260.34C-0.3 260.31 -0.27 260.37 -0.29 260.34C-0.33 260.26 -0.29 260.15 -0.21 260.11C35.76 242.71 143.52 190.6 179.5 173.2Z" id="a1lZv646bF"></path></defs><g><g><g><use xlink:href="#d1jRvJqdCb" opacity="1" fill="url(#gradientd1eQDodcax)"></use><use xlink:href="#d1jRvJqdCb" opacity="1" fill="#b3b8ea" fill-opacity="0.38"></use></g><g><use xlink:href="#c16muDENxY" opacity="0.52" fill="#ecf0ff" fill-opacity="1"></use><g><use xlink:href="#c16muDENxY" opacity="0.52" fill-opacity="0" stroke="#000000" stroke-width="1" stroke-opacity="0"></use></g></g><g><use xlink:href="#f49Um1P4G" opacity="0.41" fill="#4ba5ef" fill-opacity="0.61"></use><g><use xlink:href="#f49Um1P4G" opacity="0.41" fill-opacity="0" stroke="#000000" stroke-width="1" stroke-opacity="0"></use></g></g><g><use xlink:href="#aQnrEpgCA" opacity="0.41" fill="#6b7cef" fill-opacity="0.63"></use><g><use xlink:href="#aQnrEpgCA" opacity="0.41" fill-opacity="0" stroke="#000000" stroke-width="1" stroke-opacity="0"></use></g></g><g><use xlink:href="#agU5lIIWK" opacity="0.88" fill="#cac4f9" fill-opacity="0.68"></use><g><use xlink:href="#agU5lIIWK" opacity="0.88" fill-opacity="0" stroke="#000000" stroke-width="1" stroke-opacity="0"></use></g></g><g><use xlink:href="#a2l4dnOoGe" opacity="1" fill="#95cff3" fill-opacity="1"></use></g><g><use xlink:href="#f2WKRcuzU4" opacity="1" fill="#95bcf3" fill-opacity="1"></use></g><g><use xlink:href="#fJDs9MZLp" opacity="1" fill="#95bcf3" fill-opacity="1"></use></g><g><use xlink:href="#avrIQxaP3" opacity="1" fill="#95cff3" fill-opacity="1"></use></g><g><use xlink:href="#d1Pq7UbipS" opacity="0.41" fill="#bcbfd4" fill-opacity="1"></use><g><use xlink:href="#d1Pq7UbipS" opacity="0.41" fill-opacity="0" stroke="#000000" stroke-width="1" stroke-opacity="0"></use></g></g><g><use xlink:href="#a1lZv646bF" opacity="1" fill="#95cff3" fill-opacity="1"></use></g></g></g></svg>