<?xml version="1.0" encoding="UTF-8" standalone="no"?>
<!DOCTYPE svg PUBLIC "-//W3C//DTD SVG 1.1//EN" "http://www.w3.org/Graphics/SVG/1.1/DTD/svg11.dtd">
<svg version="1.1" xmlns="http://www.w3.org/2000/svg" xmlns:xlink="http://www.w3.org/1999/xlink" preserveAspectRatio="xMidYMid meet" viewBox="0 0 640 640" width="640" height="640"><defs><path d="M-3.19 4.26L636.81 4.26L636.81 343.62L-3.19 343.62L-3.19 4.26Z" id="e2wz9scSNg"></path><colorGradient id="gradientaaveTf9Q" gradientUnits="userSpaceOnUse"><stop style="stop-color: #ffffff;stop-opacity: 0.21" offset="0%"></stop><stop style="stop-color: #010000;stop-opacity: 1" offset="100%"></stop></colorGradient><path d="M535.36 80.8C525.51 116.02 516.03 146.36 496.04 171.51C476.1 196.74 445.61 216.63 413.92 218.5C382.18 220.29 349.26 204 320.8 182.42C292.39 160.92 268.46 134.08 253.8 99.89C239.21 65.71 233.82 24.17 254.03 3.36C274.18 -17.46 319.94 -17.57 355.68 -24.57C391.43 -31.56 417.22 -45.38 450.56 -48.18C483.9 -50.98 524.78 -42.72 540.12 -18.57C555.46 5.58 545.2 45.58 535.36 80.8Z" id="iSFfvCt7q"></path><path d="M70.76 9.77C75.27 10.91 80.82 11.59 83.15 15.6C85.49 19.6 84.62 26.96 81.14 31.18C77.67 35.4 71.59 36.51 66.03 39.05C60.48 41.59 55.43 45.59 51 45.34C46.57 45.1 42.76 40.63 40.83 34.41C38.9 28.17 38.86 20.21 42.25 15.08C45.65 9.96 52.48 7.68 57.64 7.35C62.79 7.01 66.25 8.63 70.76 9.77Z" id="c3sLijwyFo"></path><path d="M567.6 24.78C581.07 29.23 597.35 33.09 605.75 43.02C614.2 52.94 614.81 68.96 606.58 76.9C598.35 84.84 581.31 84.74 566.36 88.04C551.44 91.36 538.56 98.13 525.69 95.7C512.82 93.3 499.95 81.72 491.75 67.04C483.57 52.33 480.09 34.56 487.69 24.57C495.32 14.58 514.04 12.4 528.75 13.84C543.46 15.27 554.12 20.33 567.6 24.78Z" id="j19DgwJsAa"></path><path d="M100.84 256.61L61.69 284.8L100.84 284.8L100.84 256.61Z" id="a3priZX6V"></path><path d="M723.66 293.94C723.66 347.06 651.63 390.19 562.92 390.19C474.2 390.19 402.17 347.06 402.17 293.94C402.17 240.81 474.2 197.68 562.92 197.68C651.63 197.68 723.66 240.81 723.66 293.94Z" id="b9TwNxdPGK"></path><path d="M120.84 276.61L81.69 304.8L120.84 304.8L120.84 276.61Z" id="cFCW4mf9"></path><path d="M139.99 298.93L100.84 327.12L139.99 327.12L139.99 298.93Z" id="c4uTkegXLg"></path><path d="M152.54 235.97L113.4 264.16L152.54 264.16L152.54 235.97Z" id="c2URRWurd1"></path><path d="M172.12 256.61L132.97 284.8L172.12 284.8L172.12 256.61Z" id="b4gqYmGh0L"></path><path d="M191.69 281.64L152.54 309.83L191.69 309.83L191.69 281.64Z" id="b1skScgyL4"></path><path d="M81.56 235.97L42.41 264.16L81.56 264.16L81.56 235.97Z" id="b2gM09zMOM"></path><path d="M132.97 215.33L93.82 243.53L132.97 243.53L132.97 215.33Z" id="b25yCGd7l5"></path><path d="M211.27 304.8L172.12 332.99L211.27 332.99L211.27 304.8Z" id="aCgy4EN4j"></path><path d="M159.99 318.93L120.84 347.12L159.99 347.12L159.99 318.93Z" id="aPskSDY4S"></path><path d="M113.4 194.46L74.25 222.65L113.4 222.65L113.4 194.46Z" id="a1aVyqhV7j"></path><path d="M186.16 194.46L147.01 222.65L186.16 222.65L186.16 194.46Z" id="a2lF9EK0lS"></path><path d="M205.74 221.88L166.59 250.07L205.74 250.07L205.74 221.88Z" id="a2jTzr0CaJ"></path><path d="M225.31 248.42L186.16 276.61L225.31 276.61L225.31 248.42Z" id="a7PdLkQW1d"></path></defs><g><g><g><use xlink:href="#e2wz9scSNg" opacity="1" fill="url(#gradientaaveTf9Q)"></use><use xlink:href="#e2wz9scSNg" opacity="1" fill="#ffffff" fill-opacity="1"></use></g><g><use xlink:href="#iSFfvCt7q" opacity="0.52" fill="#53a969" fill-opacity="0.16"></use><g><use xlink:href="#iSFfvCt7q" opacity="0.52" fill-opacity="0" stroke="#000000" stroke-width="1" stroke-opacity="0"></use></g></g><g><use xlink:href="#c3sLijwyFo" opacity="0.41" fill="#4bef9c" fill-opacity="1"></use><g><use xlink:href="#c3sLijwyFo" opacity="0.41" fill-opacity="0" stroke="#000000" stroke-width="1" stroke-opacity="0"></use></g></g><g><use xlink:href="#j19DgwJsAa" opacity="0.88" fill="#c4f9d5" fill-opacity="0.68"></use><g><use xlink:href="#j19DgwJsAa" opacity="0.88" fill-opacity="0" stroke="#000000" stroke-width="1" stroke-opacity="0"></use></g></g><g><use xlink:href="#a3priZX6V" opacity="1" fill="#c5ffda" fill-opacity="1"></use></g><g><use xlink:href="#b9TwNxdPGK" opacity="1" fill="#bdedbe" fill-opacity="0.51"></use></g><g><use xlink:href="#cFCW4mf9" opacity="1" fill="#c5fff0" fill-opacity="1"></use></g><g><use xlink:href="#c4uTkegXLg" opacity="1" fill="#c5ffda" fill-opacity="1"></use></g><g><use xlink:href="#c2URRWurd1" opacity="1" fill="#c5fff0" fill-opacity="1"></use></g><g><use xlink:href="#b4gqYmGh0L" opacity="1" fill="#c5ffda" fill-opacity="1"></use></g><g><use xlink:href="#b1skScgyL4" opacity="1" fill="#c5ffda" fill-opacity="1"></use></g><g><use xlink:href="#b2gM09zMOM" opacity="1" fill="#c5fff0" fill-opacity="1"></use></g><g><use xlink:href="#b25yCGd7l5" opacity="1" fill="#c5fff0" fill-opacity="1"></use></g><g><use xlink:href="#aCgy4EN4j" opacity="1" fill="#c5ffda" fill-opacity="1"></use></g><g><use xlink:href="#aPskSDY4S" opacity="1" fill="#c5ffda" fill-opacity="1"></use></g><g><use xlink:href="#a1aVyqhV7j" opacity="1" fill="#c5ffda" fill-opacity="1"></use></g><g><use xlink:href="#a2lF9EK0lS" opacity="1" fill="#c5ffda" fill-opacity="1"></use></g><g><use xlink:href="#a2jTzr0CaJ" opacity="1" fill="#c5fff0" fill-opacity="1"></use></g><g><use xlink:href="#a7PdLkQW1d" opacity="1" fill="#c5ffda" fill-opacity="1"></use></g></g></g></svg>