<?xml version="1.0" encoding="UTF-8" standalone="no"?>
<!DOCTYPE svg PUBLIC "-//W3C//DTD SVG 1.1//EN" "http://www.w3.org/Graphics/SVG/1.1/DTD/svg11.dtd">
<svg version="1.1" xmlns="http://www.w3.org/2000/svg" xmlns:xlink="http://www.w3.org/1999/xlink" preserveAspectRatio="xMidYMid meet" viewBox="0 0 640 640" width="640" height="640"><defs><path d="M-3.19 4.26L636.81 4.26L636.81 384.04L-3.19 384.04L-3.19 4.26Z" id="a2LG9hpPIJ"></path><colorGradient id="gradientf4G4VN2AOw" gradientUnits="userSpaceOnUse"><stop style="stop-color: #ffffff;stop-opacity: 0.21" offset="0%"></stop><stop style="stop-color: #010000;stop-opacity: 1" offset="100%"></stop></colorGradient><path d="M530.85 164.22C531.85 203.74 531.18 238.1 511.91 270.32C492.74 302.61 454.86 332.62 406.84 344.34C358.7 355.99 300.43 349.28 246.61 335.72C192.91 322.22 143.66 301.8 105.33 270.91C67.12 240.01 39.71 198.65 61.32 170.85C82.83 143.06 153.35 128.83 205.28 110.54C257.2 92.25 290.62 69.99 340.76 56.79C390.9 43.59 457.76 39.54 492.52 59.81C527.28 80.09 529.84 124.7 530.85 164.22Z" id="d8YwZlVTd"></path><path d="M71.59 83.68C75.87 85.02 81.07 86.12 83.64 89.42C86.23 92.72 86.19 98.24 83.43 101.09C80.66 103.94 75.16 104.15 70.29 105.5C65.42 106.86 61.17 109.38 57.05 108.72C52.93 108.08 48.94 104.27 46.51 99.33C44.07 94.37 43.21 88.3 45.8 84.74C48.41 81.19 54.48 80.17 59.21 80.46C63.93 80.74 67.3 82.34 71.59 83.68Z" id="e6cudIQWro"></path><path d="M56.08 133.25C59.14 133.86 62.96 134.02 64.3 137.08C65.66 140.13 64.55 146.09 61.84 149.71C59.14 153.33 54.83 154.63 50.79 157.05C46.75 159.47 42.95 163.02 39.89 163.12C36.82 163.23 34.47 159.91 33.55 155.06C32.64 150.19 33.16 143.81 35.87 139.46C38.59 135.12 43.5 132.83 47.11 132.21C50.72 131.59 53.02 132.65 56.08 133.25Z" id="cRbOMe1P3"></path><path d="M355.52 147.56C394.88 160.39 442.47 171.4 466.81 200.72C491.27 230.01 492.53 277.73 468.17 301.65C443.8 325.56 393.85 325.78 349.92 336.1C306.07 346.47 268.09 367.04 230.46 360.2C192.79 353.44 155.44 319.35 131.86 275.85C108.32 232.27 98.68 179.44 121.28 149.41C143.95 119.42 198.9 112.34 241.98 116.16C285.06 119.98 316.16 134.72 355.52 147.56Z" id="b1JN9BDgJZ"></path><path d="M583.26 148.83C585.02 148.83 586.45 150.26 586.45 152.02C586.45 152.66 586.45 151.38 586.45 152.02C586.45 153.78 585.02 155.21 583.26 155.21C561.77 155.21 500.49 155.21 479 155.21C477.24 155.21 475.81 153.78 475.81 152.02C475.81 151.38 475.81 152.66 475.81 152.02C475.81 150.26 477.24 148.83 479 148.83C500.49 148.83 561.77 148.83 583.26 148.83Z" id="a50npCyAub"></path><path d="M593.26 108.83C595.02 108.83 596.45 110.26 596.45 112.02C596.45 112.66 596.45 111.38 596.45 112.02C596.45 113.78 595.02 115.21 593.26 115.21C571.77 115.21 510.49 115.21 489 115.21C487.24 115.21 485.81 113.78 485.81 112.02C485.81 111.38 485.81 112.66 485.81 112.02C485.81 110.26 487.24 108.83 489 108.83C510.49 108.83 571.77 108.83 593.26 108.83Z" id="ibxIpQyz"></path><path d="M613.26 128.83C615.02 128.83 616.45 130.26 616.45 132.02C616.45 132.66 616.45 131.38 616.45 132.02C616.45 133.78 615.02 135.21 613.26 135.21C591.77 135.21 530.49 135.21 509 135.21C507.24 135.21 505.81 133.78 505.81 132.02C505.81 131.38 505.81 132.66 505.81 132.02C505.81 130.26 507.24 128.83 509 128.83C530.49 128.83 591.77 128.83 613.26 128.83Z" id="b32EjVng2F"></path><path d="M603.26 168.83C605.02 168.83 606.45 170.26 606.45 172.02C606.45 172.66 606.45 171.38 606.45 172.02C606.45 173.78 605.02 175.21 603.26 175.21C581.77 175.21 520.49 175.21 499 175.21C497.24 175.21 495.81 173.78 495.81 172.02C495.81 171.38 495.81 172.66 495.81 172.02C495.81 170.26 497.24 168.83 499 168.83C520.49 168.83 581.77 168.83 603.26 168.83Z" id="a5PfIMMidB"></path></defs><g><g><g><use xlink:href="#a2LG9hpPIJ" opacity="1" fill="url(#gradientf4G4VN2AOw)"></use><use xlink:href="#a2LG9hpPIJ" opacity="1" fill="#84cbda" fill-opacity="0.38"></use></g><g><use xlink:href="#d8YwZlVTd" opacity="0.52" fill="#ffffff" fill-opacity="1"></use><g><use xlink:href="#d8YwZlVTd" opacity="0.52" fill-opacity="0" stroke="#000000" stroke-width="1" stroke-opacity="0"></use></g></g><g><use xlink:href="#e6cudIQWro" opacity="0.41" fill="#4ba5ef" fill-opacity="1"></use><g><use xlink:href="#e6cudIQWro" opacity="0.41" fill-opacity="0" stroke="#000000" stroke-width="1" stroke-opacity="0"></use></g></g><g><use xlink:href="#cRbOMe1P3" opacity="0.41" fill="#4b60ef" fill-opacity="1"></use><g><use xlink:href="#cRbOMe1P3" opacity="0.41" fill-opacity="0" stroke="#000000" stroke-width="1" stroke-opacity="0"></use></g></g><g><use xlink:href="#b1JN9BDgJZ" opacity="0.47" fill="#8cbfe9" fill-opacity="1"></use><g><use xlink:href="#b1JN9BDgJZ" opacity="0.47" fill-opacity="0" stroke="#000000" stroke-width="1" stroke-opacity="0"></use></g></g><g><use xlink:href="#a50npCyAub" opacity="1" fill="#95cff3" fill-opacity="1"></use></g><g><use xlink:href="#ibxIpQyz" opacity="1" fill="#95bcf3" fill-opacity="1"></use></g><g><use xlink:href="#b32EjVng2F" opacity="1" fill="#95bcf3" fill-opacity="1"></use></g><g><use xlink:href="#a5PfIMMidB" opacity="1" fill="#95cff3" fill-opacity="1"></use></g></g></g></svg>