<?xml version="1.0" encoding="UTF-8" standalone="no"?>
<!DOCTYPE svg PUBLIC "-//W3C//DTD SVG 1.1//EN" "http://www.w3.org/Graphics/SVG/1.1/DTD/svg11.dtd">
<svg version="1.1" xmlns="http://www.w3.org/2000/svg" xmlns:xlink="http://www.w3.org/1999/xlink" preserveAspectRatio="xMidYMid meet" viewBox="0 0 640 640" width="640" height="640"><defs><path d="M-3.19 4.26L636.81 4.26L636.81 343.62L-3.19 343.62L-3.19 4.26Z" id="bvVcA9ZKH"></path><colorGradient id="gradientb65lrDWMVZ" gradientUnits="userSpaceOnUse"><stop style="stop-color: #ffffff;stop-opacity: 0.21" offset="0%"></stop><stop style="stop-color: #010000;stop-opacity: 1" offset="100%"></stop></colorGradient><path d="M535.58 147.28C536.54 182.94 535.9 213.94 517.31 243.01C498.83 272.14 462.3 299.22 415.99 309.8C369.57 320.31 313.37 314.25 261.48 302.01C209.69 289.84 162.19 271.41 125.23 243.54C88.38 215.67 61.95 178.35 82.79 153.27C103.53 128.19 171.54 115.35 221.61 98.86C271.68 82.36 303.92 62.27 352.27 50.36C400.62 38.46 465.09 34.8 498.62 53.09C532.14 71.38 534.61 111.63 535.58 147.28Z" id="g2E5THxOMQ"></path><path d="M52.97 247.54C57.26 248.88 62.45 249.98 65.03 253.28C67.61 256.58 67.58 262.1 64.81 264.95C62.04 267.81 56.54 268.01 51.67 269.37C46.81 270.72 42.55 273.24 38.44 272.59C34.32 271.94 30.33 268.13 27.89 263.19C25.46 258.23 24.59 252.16 27.18 248.6C29.79 245.05 35.86 244.04 40.59 244.32C45.32 244.61 48.69 246.2 52.97 247.54Z" id="cXfgffqMF"></path><path d="M92.61 285.32C95.67 285.92 99.49 286.09 100.84 289.15C102.19 292.2 101.08 298.15 98.38 301.78C95.67 305.4 91.36 306.7 87.32 309.12C83.28 311.54 79.49 315.09 76.42 315.19C73.35 315.3 71.01 311.98 70.09 307.12C69.17 302.26 69.69 295.87 72.4 291.53C75.12 287.19 80.03 284.9 83.64 284.28C87.25 283.66 89.55 284.71 92.61 285.32Z" id="bbETTbNwY"></path><path d="M318.11 140.75C353.84 152.62 396.97 162.98 419.37 189.17C441.86 215.34 443.66 257.45 421.98 278.21C400.3 298.96 355.19 298.47 315.65 306.97C276.19 315.5 242.16 333.12 208.08 326.57C173.96 320.09 139.75 289.51 117.85 250.81C95.99 212.06 86.55 165.33 106.55 139.15C126.61 113.01 176.15 107.53 215.12 111.49C254.08 115.45 282.38 128.89 318.11 140.75Z" id="bnLUaIcME"></path><path d="M583.26 148.83C585.02 148.83 586.45 150.26 586.45 152.02C586.45 152.66 586.45 151.38 586.45 152.02C586.45 153.78 585.02 155.21 583.26 155.21C561.77 155.21 500.49 155.21 479 155.21C477.24 155.21 475.81 153.78 475.81 152.02C475.81 151.38 475.81 152.66 475.81 152.02C475.81 150.26 477.24 148.83 479 148.83C500.49 148.83 561.77 148.83 583.26 148.83Z" id="a50npCyAub"></path><path d="M593.26 108.83C595.02 108.83 596.45 110.26 596.45 112.02C596.45 112.66 596.45 111.38 596.45 112.02C596.45 113.78 595.02 115.21 593.26 115.21C571.77 115.21 510.49 115.21 489 115.21C487.24 115.21 485.81 113.78 485.81 112.02C485.81 111.38 485.81 112.66 485.81 112.02C485.81 110.26 487.24 108.83 489 108.83C510.49 108.83 571.77 108.83 593.26 108.83Z" id="ibxIpQyz"></path><path d="M613.26 128.83C615.02 128.83 616.45 130.26 616.45 132.02C616.45 132.66 616.45 131.38 616.45 132.02C616.45 133.78 615.02 135.21 613.26 135.21C591.77 135.21 530.49 135.21 509 135.21C507.24 135.21 505.81 133.78 505.81 132.02C505.81 131.38 505.81 132.66 505.81 132.02C505.81 130.26 507.24 128.83 509 128.83C530.49 128.83 591.77 128.83 613.26 128.83Z" id="b32EjVng2F"></path><path d="M603.26 168.83C605.02 168.83 606.45 170.26 606.45 172.02C606.45 172.66 606.45 171.38 606.45 172.02C606.45 173.78 605.02 175.21 603.26 175.21C581.77 175.21 520.49 175.21 499 175.21C497.24 175.21 495.81 173.78 495.81 172.02C495.81 171.38 495.81 172.66 495.81 172.02C495.81 170.26 497.24 168.83 499 168.83C520.49 168.83 581.77 168.83 603.26 168.83Z" id="a5PfIMMidB"></path></defs><g><g><g><use xlink:href="#bvVcA9ZKH" opacity="1" fill="url(#gradientb65lrDWMVZ)"></use><use xlink:href="#bvVcA9ZKH" opacity="1" fill="#b3e1ea" fill-opacity="0.38"></use></g><g><use xlink:href="#g2E5THxOMQ" opacity="0.52" fill="#ffffff" fill-opacity="1"></use><g><use xlink:href="#g2E5THxOMQ" opacity="0.52" fill-opacity="0" stroke="#000000" stroke-width="1" stroke-opacity="0"></use></g></g><g><use xlink:href="#cXfgffqMF" opacity="0.41" fill="#4ba5ef" fill-opacity="1"></use><g><use xlink:href="#cXfgffqMF" opacity="0.41" fill-opacity="0" stroke="#000000" stroke-width="1" stroke-opacity="0"></use></g></g><g><use xlink:href="#bbETTbNwY" opacity="0.41" fill="#4b60ef" fill-opacity="1"></use><g><use xlink:href="#bbETTbNwY" opacity="0.41" fill-opacity="0" stroke="#000000" stroke-width="1" stroke-opacity="0"></use></g></g><g><use xlink:href="#bnLUaIcME" opacity="0.88" fill="#c5e1f9" fill-opacity="0.68"></use><g><use xlink:href="#bnLUaIcME" opacity="0.88" fill-opacity="0" stroke="#000000" stroke-width="1" stroke-opacity="0"></use></g></g><g><use xlink:href="#a50npCyAub" opacity="1" fill="#95cff3" fill-opacity="1"></use></g><g><use xlink:href="#ibxIpQyz" opacity="1" fill="#95bcf3" fill-opacity="1"></use></g><g><use xlink:href="#b32EjVng2F" opacity="1" fill="#95bcf3" fill-opacity="1"></use></g><g><use xlink:href="#a5PfIMMidB" opacity="1" fill="#95cff3" fill-opacity="1"></use></g></g></g></svg>