<?xml version="1.0" encoding="UTF-8" standalone="no"?>
<!DOCTYPE svg PUBLIC "-//W3C//DTD SVG 1.1//EN" "http://www.w3.org/Graphics/SVG/1.1/DTD/svg11.dtd">
<svg version="1.1" xmlns="http://www.w3.org/2000/svg" xmlns:xlink="http://www.w3.org/1999/xlink" preserveAspectRatio="xMidYMid meet" viewBox="0 0 640 640" width="640" height="640"><defs><path d="M-3.19 4.26L636.81 4.26L636.81 343.62L-3.19 343.62L-3.19 4.26Z" id="c14YMmbbE"></path><colorGradient id="gradientaOnLcXK1O" gradientUnits="userSpaceOnUse"><stop style="stop-color: #ffffff;stop-opacity: 0.21" offset="0%"></stop><stop style="stop-color: #010000;stop-opacity: 1" offset="100%"></stop></colorGradient><path d="M658.98 242.18C659.95 277.84 659.3 308.84 640.72 337.91C622.23 367.04 585.7 394.12 539.39 404.69C492.97 415.2 436.78 409.15 384.88 396.91C333.09 384.74 285.6 366.31 248.64 338.44C211.78 310.57 185.35 273.25 206.2 248.17C226.93 223.09 294.95 210.25 345.02 193.75C395.09 177.26 427.32 157.17 475.68 145.26C524.03 133.35 588.5 129.69 622.02 147.99C655.54 166.28 658.01 206.53 658.98 242.18Z" id="g4EQrfslD"></path><path d="M597.36 62.96C601.87 64.1 607.41 64.78 609.74 68.79C612.09 72.8 611.21 80.15 607.74 84.37C604.27 88.59 598.19 89.7 592.63 92.24C587.08 94.78 582.02 98.78 577.59 98.53C573.16 98.29 569.35 93.82 567.42 87.6C565.5 81.37 565.46 73.4 568.85 68.27C572.25 63.15 579.08 60.87 584.23 60.54C589.39 60.21 592.85 61.82 597.36 62.96Z" id="e27ZSIKD8d"></path><path d="M567.6 24.78C581.07 29.23 597.35 33.09 605.75 43.02C614.2 52.94 614.81 68.96 606.58 76.9C598.35 84.84 581.31 84.74 566.36 88.04C551.44 91.36 538.56 98.13 525.69 95.7C512.82 93.3 499.95 81.72 491.75 67.04C483.57 52.33 480.09 34.56 487.69 24.57C495.32 14.58 514.04 12.4 528.75 13.84C543.46 15.27 554.12 20.33 567.6 24.78Z" id="a1T50IllZ"></path><path d="M443.62 110.33C445.38 110.33 446.81 108.91 446.81 107.14C446.81 106.5 446.81 107.78 446.81 107.14C446.81 105.38 445.38 103.95 443.62 103.95C354.89 103.95 91.91 103.95 3.19 103.95C1.43 103.95 0 105.38 0 107.14C0 107.78 0 106.5 0 107.14C0 108.91 1.43 110.33 3.19 110.33C91.91 110.33 354.89 110.33 443.62 110.33Z" id="c2KkddiiXl"></path><path d="M456.38 86.28C458.15 86.28 459.57 84.85 459.57 83.09C459.57 82.45 459.57 83.72 459.57 83.09C459.57 81.32 458.15 79.89 456.38 79.89C364.47 79.89 91.91 79.89 0 79.89C-1.76 79.89 -3.19 81.32 -3.19 83.09C-3.19 83.72 -3.19 82.45 -3.19 83.09C-3.19 84.85 -1.76 86.28 0 86.28C91.91 86.28 364.47 86.28 456.38 86.28Z" id="a1GX0sLgBT"></path><path d="M3.19 129.47C1.43 129.47 0 130.9 0 132.66C0 133.3 0 132.02 0 132.66C0 134.42 1.43 135.85 3.19 135.85C89.36 135.85 344.68 135.85 430.85 135.85C432.61 135.85 434.04 134.42 434.04 132.66C434.04 132.02 434.04 133.3 434.04 132.66C434.04 130.9 432.61 129.47 430.85 129.47C344.68 129.47 89.36 129.47 3.19 129.47Z" id="b1yyk4SpQu"></path><path d="M636.81 278.19L572.13 343.62L636.81 343.62L636.81 278.19Z" id="a5zw61OWR"></path><path d="M4.26 153.72C1.91 153.72 0 155.63 0 157.98C0 158.83 0 157.13 0 157.98C0 160.33 1.91 162.23 4.26 162.23C88.3 162.23 336.17 162.23 420.21 162.23C422.56 162.23 424.47 160.33 424.47 157.98C424.47 157.13 424.47 158.83 424.47 157.98C424.47 155.63 422.56 153.72 420.21 153.72C336.17 153.72 88.3 153.72 4.26 153.72Z" id="dhva0nW0S"></path><path d="M3.19 179.13C1.43 179.13 0 180.56 0 182.32C0 182.96 0 181.68 0 182.32C0 184.08 1.43 185.51 3.19 185.51C84.47 185.51 325.11 185.51 406.38 185.51C408.15 185.51 409.57 184.08 409.57 182.32C409.57 181.68 409.57 182.96 409.57 182.32C409.57 180.56 408.15 179.13 406.38 179.13C325.11 179.13 84.47 179.13 3.19 179.13Z" id="ootNchnv"></path><path d="M0 208.21L270.43 2.36L0 2.36L0 208.21Z" id="izQfSBkTq"></path></defs><g><g><g><use xlink:href="#c14YMmbbE" opacity="1" fill="url(#gradientaOnLcXK1O)"></use><use xlink:href="#c14YMmbbE" opacity="1" fill="#ffffff" fill-opacity="1"></use></g><g><use xlink:href="#g4EQrfslD" opacity="0.52" fill="#ffffff" fill-opacity="1"></use><g><use xlink:href="#g4EQrfslD" opacity="0.52" fill-opacity="0" stroke="#000000" stroke-width="1" stroke-opacity="0"></use></g></g><g><use xlink:href="#e27ZSIKD8d" opacity="0.41" fill="#efac4b" fill-opacity="1"></use><g><use xlink:href="#e27ZSIKD8d" opacity="0.41" fill-opacity="0" stroke="#000000" stroke-width="1" stroke-opacity="0"></use></g></g><g><use xlink:href="#a1T50IllZ" opacity="0.88" fill="#f9edc4" fill-opacity="0.68"></use><g><use xlink:href="#a1T50IllZ" opacity="0.88" fill-opacity="0" stroke="#000000" stroke-width="1" stroke-opacity="0"></use></g></g><g><use xlink:href="#c2KkddiiXl" opacity="1" fill="#eff395" fill-opacity="1"></use></g><g><use xlink:href="#a1GX0sLgBT" opacity="1" fill="#f2f395" fill-opacity="1"></use></g><g><use xlink:href="#b1yyk4SpQu" opacity="1" fill="#eff395" fill-opacity="1"></use></g><g><use xlink:href="#a5zw61OWR" opacity="1" fill="#f3cc95" fill-opacity="1"></use></g><g><use xlink:href="#dhva0nW0S" opacity="1" fill="#f8fbaa" fill-opacity="1"></use></g><g><use xlink:href="#ootNchnv" opacity="1" fill="#f9fbcc" fill-opacity="1"></use></g><g><use xlink:href="#izQfSBkTq" opacity="1" fill="#ffe7c5" fill-opacity="1"></use></g></g></g></svg>