<?xml version="1.0" encoding="UTF-8" standalone="no"?>
<!DOCTYPE svg PUBLIC "-//W3C//DTD SVG 1.1//EN" "http://www.w3.org/Graphics/SVG/1.1/DTD/svg11.dtd">
<svg version="1.1" xmlns="http://www.w3.org/2000/svg" xmlns:xlink="http://www.w3.org/1999/xlink" preserveAspectRatio="xMidYMid meet" viewBox="0 0 640 640" width="640" height="640"><defs><path d="M0 0L640 0L640 339.36L0 339.36L0 0Z" id="d1jRvJqdCb"></path><colorGradient id="gradientd1eQDodcax" gradientUnits="userSpaceOnUse"><stop style="stop-color: #ffffff;stop-opacity: 0.21" offset="0%"></stop><stop style="stop-color: #010000;stop-opacity: 1" offset="100%"></stop></colorGradient><path d="M6.23 163.85C0.09 135.98 -4.06 111.51 6.38 85.82C16.73 60.1 41.78 33.24 77.11 17.85C112.54 2.5 158.26 -1.32 201.48 0.37C244.6 2.03 285.24 9.26 318.91 25.52C352.49 41.8 379.19 67.09 366.34 89.99C353.59 112.87 301.29 133.35 263.85 153.96C226.41 174.58 203.74 195.29 166.98 212.03C130.22 228.78 79.37 241.5 49.89 232.24C20.4 222.99 12.37 191.73 6.23 163.85Z" id="b2DjTyIf9e"></path><path d="M571.97 22.62C580.24 25.47 590.19 28.05 595.52 33.91C600.87 39.77 601.6 48.94 596.79 53.29C591.98 57.64 581.64 57.19 572.65 58.74C563.68 60.3 556.02 63.88 548.16 62.2C540.3 60.53 532.24 53.62 526.93 45.05C521.63 36.46 519.12 26.22 523.5 20.68C527.9 15.15 539.2 14.33 548.16 15.49C557.11 16.64 563.69 19.77 571.97 22.62Z" id="f49Um1P4G"></path><path d="M599.9 21.85C602.96 22.46 606.78 22.62 608.13 25.68C609.48 28.73 608.37 34.68 605.67 38.31C602.96 41.93 598.65 43.23 594.61 45.65C590.57 48.07 586.78 51.62 583.71 51.72C580.64 51.83 578.3 48.51 577.38 43.65C576.46 38.79 576.98 32.4 579.69 28.06C582.41 23.72 587.32 21.43 590.93 20.81C594.54 20.19 596.84 21.24 599.9 21.85Z" id="aQnrEpgCA"></path><path d="M511.26 186.95C548.01 200.51 591.96 213.56 616.88 237.8C641.9 262.04 647.93 297.56 628.45 312.8C608.98 328.04 564.04 323.08 525.56 326.23C487.16 329.41 455.09 340.77 420.52 331.84C385.92 322.96 348.8 293.84 323.12 259.16C297.46 224.42 283.37 184.25 300.62 164.29C317.95 144.38 366.68 144.76 405.85 152.02C445.01 159.27 474.52 173.39 511.26 186.95Z" id="cF2cn03zM"></path><path d="M177.58 219.86C178.56 219.38 179.74 219.79 180.21 220.78C180.38 221.13 180.04 220.42 180.21 220.78C180.69 221.76 180.28 222.94 179.29 223.41C143.65 240.65 38.48 291.51 2.83 308.75C1.85 309.23 0.67 308.82 0.2 307.83C0.03 307.48 0.37 308.19 0.2 307.83C-0.28 306.85 0.13 305.67 1.12 305.2C36.76 287.96 141.93 237.1 177.58 219.86Z" id="b8TjqNeLQ"></path><path d="M142.42 168.14C143.4 167.66 144.58 168.07 145.06 169.05C145.23 169.41 144.89 168.7 145.06 169.05C145.53 170.04 145.12 171.22 144.14 171.69C115.07 185.75 29.63 227.07 0.56 241.13C-0.43 241.61 -1.61 241.19 -2.08 240.21C-2.25 239.86 -1.91 240.57 -2.08 240.21C-2.56 239.23 -2.14 238.05 -1.16 237.58C27.91 223.52 113.35 182.2 142.42 168.14Z" id="buiPUarXq"></path><path d="M128.75 285.99C129.74 285.52 130.92 285.93 131.39 286.91C131.56 287.27 131.22 286.56 131.39 286.91C131.87 287.89 131.45 289.07 130.47 289.55C109.8 299.54 49.58 328.67 28.91 338.67C27.93 339.14 26.75 338.73 26.27 337.75C26.1 337.39 26.44 338.1 26.27 337.75C25.8 336.77 26.21 335.59 27.19 335.11C47.86 325.12 108.09 295.99 128.75 285.99Z" id="emjpdSiK9"></path><path d="M175.3 175.21C176.28 174.74 177.46 175.15 177.93 176.13C178.11 176.49 177.76 175.78 177.93 176.13C178.41 177.11 178 178.29 177.02 178.77C141.37 196.01 36.2 246.87 0.56 264.11C-0.43 264.58 -1.61 264.17 -2.08 263.19C-2.25 262.83 -1.91 263.55 -2.08 263.19C-2.56 262.21 -2.14 261.03 -1.16 260.55C34.48 243.31 139.65 192.45 175.3 175.21Z" id="a1tPCNfqey"></path><path d="M144.7 212.6C145.68 212.13 146.86 212.54 147.34 213.52C147.51 213.88 147.16 213.17 147.34 213.52C147.81 214.5 147.4 215.68 146.42 216.16C117.35 230.22 31.91 271.54 2.83 285.6C1.85 286.07 0.67 285.66 0.2 284.68C0.03 284.33 0.37 285.04 0.2 284.68C-0.28 283.7 0.13 282.52 1.12 282.04C30.19 267.98 115.63 226.66 144.7 212.6Z" id="d2GztUmqG3"></path><path d="M146.37 256.01C147.35 255.53 148.54 255.94 149.01 256.93C149.18 257.28 148.84 256.57 149.01 256.93C149.49 257.91 149.07 259.09 148.09 259.56C119.02 273.62 33.58 314.94 4.51 329C3.53 329.48 2.35 329.07 1.87 328.09C1.7 327.73 2.04 328.44 1.87 328.09C1.4 327.1 1.81 325.92 2.79 325.45C31.86 311.39 117.3 270.07 146.37 256.01Z" id="a29a1kNMbO"></path><path d="M164.31 135.51C165.29 135.03 166.47 135.44 166.95 136.43C167.12 136.78 166.78 136.07 166.95 136.43C167.42 137.41 167.01 138.59 166.03 139.06C133.37 154.86 37.17 201.38 4.51 217.18C3.53 217.65 2.35 217.24 1.87 216.26C1.7 215.9 2.04 216.62 1.87 216.26C1.4 215.28 1.81 214.1 2.79 213.62C35.45 197.83 131.65 151.3 164.31 135.51Z" id="a4lmjyBBV"></path></defs><g><g><g><use xlink:href="#d1jRvJqdCb" opacity="1" fill="url(#gradientd1eQDodcax)"></use><use xlink:href="#d1jRvJqdCb" opacity="1" fill="#b3b8ea" fill-opacity="0.38"></use></g><g><use xlink:href="#b2DjTyIf9e" opacity="0.52" fill="#ecf0ff" fill-opacity="1"></use><g><use xlink:href="#b2DjTyIf9e" opacity="0.52" fill-opacity="0" stroke="#000000" stroke-width="1" stroke-opacity="0"></use></g></g><g><use xlink:href="#f49Um1P4G" opacity="0.41" fill="#4ba5ef" fill-opacity="0.61"></use><g><use xlink:href="#f49Um1P4G" opacity="0.41" fill-opacity="0" stroke="#000000" stroke-width="1" stroke-opacity="0"></use></g></g><g><use xlink:href="#aQnrEpgCA" opacity="0.41" fill="#6b7cef" fill-opacity="0.63"></use><g><use xlink:href="#aQnrEpgCA" opacity="0.41" fill-opacity="0" stroke="#000000" stroke-width="1" stroke-opacity="0"></use></g></g><g><use xlink:href="#cF2cn03zM" opacity="0.88" fill="#cac4f9" fill-opacity="0.68"></use><g><use xlink:href="#cF2cn03zM" opacity="0.88" fill-opacity="0" stroke="#000000" stroke-width="1" stroke-opacity="0"></use></g></g><g><use xlink:href="#b8TjqNeLQ" opacity="1" fill="#95cff3" fill-opacity="1"></use></g><g><use xlink:href="#buiPUarXq" opacity="1" fill="#95bcf3" fill-opacity="1"></use></g><g><use xlink:href="#emjpdSiK9" opacity="1" fill="#95cff3" fill-opacity="1"></use></g><g><use xlink:href="#a1tPCNfqey" opacity="1" fill="#95cff3" fill-opacity="1"></use></g><g><use xlink:href="#d2GztUmqG3" opacity="1" fill="#95bcf3" fill-opacity="1"></use></g><g><use xlink:href="#a29a1kNMbO" opacity="1" fill="#95bcf3" fill-opacity="1"></use></g><g><use xlink:href="#a4lmjyBBV" opacity="1" fill="#95cff3" fill-opacity="1"></use></g></g></g></svg>