<?xml version="1.0" encoding="UTF-8" standalone="no"?>
<!DOCTYPE svg PUBLIC "-//W3C//DTD SVG 1.1//EN" "http://www.w3.org/Graphics/SVG/1.1/DTD/svg11.dtd">
<svg version="1.1" xmlns="http://www.w3.org/2000/svg" xmlns:xlink="http://www.w3.org/1999/xlink" preserveAspectRatio="xMidYMid meet" viewBox="0 0 640 640" width="640" height="640"><defs><path d="M639.63 246.71C640.93 311.62 640.07 368.04 615.14 420.96C590.37 473.99 541.39 523.28 479.3 542.53C417.06 561.66 341.72 550.64 272.14 528.36C202.71 506.2 139.03 472.66 89.48 421.93C40.06 371.19 4.63 303.26 32.57 257.61C60.38 211.96 151.57 188.59 218.7 158.56C285.83 128.53 329.04 91.96 393.87 70.29C458.7 48.62 545.13 41.96 590.08 75.25C635.02 108.55 638.34 181.81 639.63 246.71Z" id="bA5nHczUf"></path><path d="M591.78 289.53C577.79 347.99 564.14 398.42 533.32 440.94C502.58 483.59 454.62 518.08 403.78 523.05C352.87 527.88 299.11 503.07 252.25 469.31C205.46 435.68 165.61 392.99 140.27 337.67C115.04 282.39 104.22 214.45 135.62 179.05C166.92 143.62 240.45 140.72 297.54 127.09C354.63 113.46 395.35 89.23 448.79 82.63C502.23 76.04 568.36 87.19 594.27 125.95C620.18 164.72 605.77 231.07 591.78 289.53Z" id="a13o2hbvix"></path><path d="M297.56 181.67C277.18 203.16 259.15 221.53 238.38 234.92C217.59 248.38 194.11 256.75 178.06 253.19C162.01 249.57 153.43 233.97 149.34 215.59C145.23 197.28 145.66 176.15 153.8 151.63C161.97 127.13 177.82 99.21 196.78 88.69C215.71 78.14 237.74 84.98 258.02 85.8C278.31 86.63 296.83 81.51 314.1 84.72C331.36 87.92 347.33 99.48 343.98 117.55C340.62 135.62 317.93 160.18 297.56 181.67Z" id="a6WR1L1hD"></path><path d="M604.09 497.96C604.29 498.04 604.4 498.27 604.32 498.48C603.19 501.42 599.94 509.86 598.81 512.8C598.73 513.01 598.5 513.11 598.29 513.03C578.41 505.39 519.12 482.6 499.23 474.95C499.03 474.87 498.92 474.64 499 474.43C500.13 471.49 503.38 463.05 504.51 460.11C504.59 459.9 504.82 459.8 505.03 459.88C524.92 467.52 584.2 490.32 604.09 497.96Z" id="ajKKQHhXE"></path><path d="M354.04 482.47C354.33 482.47 354.57 482.7 354.57 482.99C354.57 487.08 354.57 498.82 354.57 502.91C354.57 503.19 354.33 503.43 354.04 503.43C312.69 503.43 189.14 503.43 147.78 503.43C147.49 503.43 147.26 503.19 147.26 502.91C147.26 498.82 147.26 487.08 147.26 482.99C147.26 482.7 147.49 482.47 147.78 482.47C189.14 482.47 312.69 482.47 354.04 482.47Z" id="c2N0uRftEa"></path><path d="M400.67 118.19L407.22 119.18L413.66 120.42L420 121.91L426.23 123.63L432.34 125.58L438.33 127.75L444.19 130.14L449.93 132.75L455.53 135.56L460.99 138.57L466.31 141.78L471.48 145.18L476.5 148.76L481.36 152.53L486.06 156.46L490.6 160.57L494.97 164.83L499.16 169.25L503.17 173.82L507.01 178.54L510.65 183.39L514.11 188.38L517.36 193.5L520.42 198.74L523.27 204.09L525.91 209.56L528.34 215.13L530.55 220.8L532.54 226.56L534.3 232.41L535.83 238.35L537.12 244.36L538.17 250.44L538.98 256.58L539.53 262.79L539.84 269.05L539.88 275.36L539.67 281.71L539.18 288.1L538.43 294.52L538.05 297.07L537.63 299.6L537.17 302.13L536.67 304.64L536.13 307.15L535.55 309.64L534.92 312.12L534.26 314.59L533.55 317.05L532.8 319.49L532.02 321.92L531.19 324.33L530.32 326.73L529.42 329.12L528.47 331.49L527.49 333.84L526.46 336.18L525.4 338.5L524.3 340.8L523.17 343.08L521.99 345.35L520.78 347.6L519.53 349.83L518.24 352.04L516.92 354.22L515.55 356.39L514.16 358.54L512.72 360.67L511.25 362.77L509.75 364.85L508.21 366.91L506.63 368.95L505.02 370.96L503.37 372.95L501.69 374.91L499.98 376.85L498.23 378.76L496.44 380.65L494.63 382.51L492.78 384.34L492.1 385L491.41 385.65L490.73 386.31L490.03 386.95L489.34 387.6L488.64 388.23L487.94 388.87L487.23 389.5L486.52 390.12L485.8 390.75L485.08 391.36L484.36 391.98L483.64 392.58L482.91 393.19L482.17 393.79L481.43 394.38L480.69 394.98L479.95 395.56L479.2 396.14L478.45 396.72L477.69 397.3L476.93 397.86L476.17 398.43L475.41 398.99L474.64 399.54L473.86 400.1L473.09 400.64L472.31 401.18L471.52 401.72L470.74 402.25L469.95 402.78L469.15 403.31L468.36 403.82L467.56 404.34L466.75 404.85L465.95 405.35L465.14 405.85L464.32 406.35L463.51 406.84L462.69 407.32L462.69 486.68L462.68 486.94L462.67 487.19L462.64 487.45L462.6 487.7L462.56 487.94L462.5 488.19L462.44 488.43L462.36 488.66L462.28 488.89L462.18 489.12L462.08 489.34L461.97 489.56L461.85 489.77L461.72 489.98L461.59 490.19L461.45 490.38L461.3 490.57L461.14 490.76L460.98 490.94L460.8 491.11L460.63 491.28L460.44 491.44L460.25 491.59L460.06 491.74L459.85 491.88L459.65 492.01L459.43 492.13L459.21 492.25L458.99 492.36L458.76 492.46L458.53 492.55L458.29 492.63L458.05 492.7L457.8 492.77L457.55 492.82L457.3 492.87L457.04 492.9L456.79 492.93L456.52 492.94L456.26 492.95L301.92 492.95L301.66 492.94L301.39 492.93L301.13 492.9L300.88 492.87L300.62 492.82L300.38 492.77L300.13 492.7L299.89 492.63L299.65 492.55L299.42 492.46L299.19 492.36L298.97 492.25L298.75 492.13L298.53 492.01L298.33 491.88L298.12 491.74L297.93 491.59L297.74 491.44L297.55 491.28L297.37 491.11L297.2 490.94L297.04 490.76L296.88 490.57L296.73 490.38L296.59 490.19L296.45 489.98L296.33 489.77L296.21 489.56L296.1 489.34L296 489.12L295.9 488.89L295.82 488.66L295.74 488.43L295.68 488.19L295.62 487.94L295.57 487.7L295.54 487.45L295.51 487.19L295.5 486.94L295.49 486.68L295.49 430.26L224.75 430.26L224.49 430.25L224.22 430.24L223.97 430.21L223.71 430.17L223.46 430.13L223.21 430.07L222.96 430.01L222.72 429.94L222.48 429.85L222.25 429.76L222.02 429.66L221.8 429.56L221.58 429.44L221.36 429.32L221.16 429.19L220.95 429.05L220.76 428.9L220.57 428.75L220.38 428.59L220.2 428.42L220.03 428.25L219.87 428.07L219.71 427.88L219.56 427.69L219.42 427.49L219.28 427.29L219.16 427.08L219.04 426.87L218.93 426.65L218.83 426.43L218.73 426.2L218.65 425.97L218.57 425.73L218.51 425.49L218.45 425.25L218.41 425L218.37 424.75L218.34 424.5L218.33 424.25L218.32 423.99L218.32 355.03L182.37 355.03L182.11 355.02L181.85 355L181.59 354.98L181.33 354.94L181.08 354.89L180.83 354.84L180.58 354.77L180.34 354.7L180.1 354.62L179.87 354.53L179.64 354.43L179.42 354.32L179.2 354.2L178.99 354.08L178.78 353.95L178.58 353.81L178.38 353.66L178.19 353.51L178.01 353.35L177.83 353.18L177.66 353.01L177.5 352.83L177.34 352.64L177.19 352.45L177.05 352.25L176.91 352.05L176.79 351.84L176.67 351.62L176.56 351.41L176.46 351.18L176.36 350.96L176.28 350.72L176.21 350.49L176.14 350.25L176.08 350.01L176.04 349.76L176 349.51L175.98 349.26L175.96 349L175.96 348.74L175.96 348.68L175.96 348.61L175.96 348.54L175.96 348.48L175.97 348.41L175.97 348.35L175.97 348.28L175.98 348.22L175.99 348.15L175.99 348.08L176 348.02L176.01 347.95L176.02 347.89L176.03 347.82L176.04 347.76L176.05 347.69L176.06 347.63L176.07 347.56L176.09 347.5L176.1 347.43L176.12 347.37L176.13 347.31L176.15 347.24L176.16 347.18L176.18 347.12L176.2 347.05L176.22 346.99L176.24 346.93L176.26 346.86L176.28 346.8L176.3 346.74L176.32 346.68L176.34 346.61L176.37 346.55L176.39 346.49L176.42 346.43L176.44 346.37L176.47 346.31L176.49 346.25L176.52 346.19L219.79 252.48L220.82 246.1L222.09 239.82L223.61 233.64L225.38 227.57L227.38 221.61L229.6 215.77L232.06 210.05L234.73 204.46L237.61 199L240.71 193.68L244 188.5L247.48 183.45L251.16 178.56L255.02 173.82L259.06 169.24L263.26 164.81L267.64 160.55L272.17 156.47L276.86 152.55L281.7 148.82L286.68 145.26L291.8 141.9L297.05 138.72L302.42 135.74L307.91 132.96L313.52 130.38L319.23 128.02L325.05 125.86L330.96 123.93L336.96 122.21L343.05 120.72L349.21 119.46L355.45 118.44L361.76 117.65L368.12 117.11L374.54 116.81L381.02 116.77L387.53 116.98L394.08 117.45L394.08 117.45L400.67 118.19ZM362.11 130.25L356.47 130.99L350.86 131.94L345.28 133.1L339.75 134.47L334.26 136.05L328.83 137.85L323.45 139.85L318.14 142.07L312.91 144.5L307.76 147.13L302.69 149.98L297.72 153.04L292.85 156.32L288.09 159.8L283.44 163.49L278.91 167.4L274.52 171.52L272.8 173.22L271.11 174.95L269.45 176.7L267.83 178.48L266.24 180.28L264.68 182.1L263.15 183.95L261.66 185.82L260.2 187.71L258.77 189.62L257.37 191.56L256.01 193.51L254.69 195.49L253.39 197.49L252.13 199.5L250.91 201.54L249.72 203.59L248.56 205.66L247.44 207.75L246.36 209.86L245.31 211.98L244.29 214.13L243.31 216.28L242.37 218.46L241.47 220.64L240.6 222.85L239.76 225.06L238.97 227.3L238.21 229.54L237.49 231.8L236.81 234.07L236.16 236.35L235.56 238.65L234.99 240.96L234.46 243.27L233.97 245.6L233.51 247.94L233.1 250.29L232.73 252.65L232.39 255.01L232.39 255.06L232.38 255.1L232.37 255.15L232.37 255.19L232.36 255.24L232.35 255.29L232.34 255.33L232.33 255.38L232.33 255.42L232.32 255.47L232.31 255.51L232.3 255.56L232.29 255.6L232.28 255.65L232.26 255.69L232.25 255.74L232.24 255.78L232.23 255.83L232.22 255.87L232.2 255.92L232.19 255.96L232.18 256.01L232.16 256.05L232.15 256.09L232.14 256.14L232.12 256.18L232.11 256.23L232.09 256.27L232.07 256.31L232.06 256.36L232.04 256.4L232.02 256.44L232.01 256.49L231.99 256.53L231.97 256.57L231.95 256.62L231.94 256.66L231.92 256.7L231.9 256.74L231.88 256.79L192.32 342.49L224.75 342.49L225.02 342.49L225.28 342.51L225.54 342.53L225.8 342.57L226.05 342.61L226.3 342.67L226.54 342.73L226.78 342.81L227.02 342.89L227.26 342.98L227.48 343.08L227.71 343.19L227.93 343.3L228.14 343.43L228.35 343.56L228.55 343.7L228.75 343.84L228.94 344L229.12 344.16L229.3 344.32L229.47 344.5L229.63 344.68L229.79 344.86L229.94 345.05L230.08 345.25L230.22 345.45L230.35 345.66L230.46 345.87L230.58 346.09L230.68 346.32L230.77 346.54L230.85 346.77L230.93 347.01L231 347.25L231.05 347.49L231.1 347.74L231.14 347.99L231.16 348.24L231.18 348.5L231.18 348.76L231.18 417.72L301.92 417.72L302.19 417.72L302.45 417.74L302.71 417.76L302.96 417.8L303.22 417.85L303.47 417.9L303.71 417.96L303.95 418.04L304.19 418.12L304.42 418.21L304.65 418.31L304.88 418.42L305.09 418.53L305.31 418.66L305.52 418.79L305.72 418.93L305.92 419.07L306.11 419.23L306.29 419.39L306.47 419.55L306.64 419.73L306.8 419.91L306.96 420.09L307.11 420.28L307.25 420.48L307.39 420.68L307.51 420.89L307.63 421.11L307.74 421.32L307.85 421.55L307.94 421.77L308.02 422.01L308.1 422.24L308.16 422.48L308.22 422.72L308.27 422.97L308.3 423.22L308.33 423.47L308.35 423.73L308.35 423.99L308.35 480.41L449.83 480.41L449.83 403.74L449.83 403.57L449.84 403.4L449.85 403.24L449.86 403.07L449.88 402.9L449.91 402.74L449.93 402.58L449.97 402.42L450 402.26L450.05 402.1L450.09 401.94L450.14 401.78L450.2 401.63L450.25 401.47L450.32 401.32L450.38 401.17L450.45 401.02L450.52 400.88L450.6 400.73L450.68 400.59L450.77 400.45L450.86 400.31L450.95 400.18L451.05 400.05L451.15 399.91L451.25 399.79L451.36 399.66L451.47 399.54L451.58 399.42L451.7 399.3L451.82 399.18L451.94 399.07L452.07 398.96L452.2 398.86L452.33 398.75L452.47 398.65L452.61 398.56L452.75 398.46L452.89 398.38L453.04 398.29L453.88 397.82L454.71 397.34L455.55 396.86L456.37 396.37L457.2 395.88L458.02 395.39L458.84 394.88L459.65 394.38L460.46 393.86L461.27 393.34L462.07 392.82L462.87 392.29L463.66 391.76L464.45 391.22L465.24 390.68L466.03 390.13L466.81 389.57L467.58 389.02L468.35 388.45L469.12 387.88L469.89 387.31L470.65 386.73L471.4 386.15L472.16 385.56L472.91 384.96L473.65 384.36L474.39 383.76L475.13 383.15L475.86 382.54L476.59 381.92L477.31 381.3L478.03 380.67L478.75 380.04L479.46 379.4L480.17 378.76L480.87 378.11L481.57 377.46L482.26 376.81L482.95 376.15L483.64 375.48L487.86 371.19L491.87 366.78L495.66 362.25L499.24 357.61L502.6 352.87L505.74 348.02L508.66 343.08L511.37 338.06L513.87 332.96L516.14 327.79L518.2 322.55L520.04 317.25L521.67 311.9L523.08 306.51L524.27 301.07L525.25 295.6L526.01 290.11L526.55 284.59L526.87 279.07L526.98 273.53L526.88 268L526.55 262.47L526.01 256.95L525.26 251.46L524.28 245.99L523.09 240.55L521.69 235.16L520.06 229.81L518.22 224.51L516.17 219.27L513.89 214.09L511.4 208.99L508.7 203.97L505.77 199.03L502.63 194.19L499.28 189.44L495.7 184.8L491.92 180.26L487.91 175.85L483.69 171.56L479.29 167.44L474.76 163.54L470.12 159.84L465.36 156.35L460.49 153.08L455.52 150.02L450.45 147.16L445.3 144.52L440.07 142.09L434.77 139.88L429.39 137.87L423.96 136.07L418.47 134.49L412.93 133.11L407.36 131.95L401.75 131L396.11 130.26L390.46 129.73L384.79 129.41L379.11 129.31L373.43 129.41L367.76 129.73L367.76 129.73L362.11 130.25ZM405.2 202.77L405.39 202.84L405.58 202.9L405.77 202.97L405.96 203.04L406.15 203.11L406.34 203.18L406.53 203.25L406.72 203.32L406.91 203.39L407.1 203.46L407.29 203.53L407.48 203.61L407.67 203.68L407.86 203.75L408.04 203.83L408.23 203.9L408.42 203.98L408.61 204.05L408.8 204.13L408.98 204.2L409.17 204.28L409.36 204.36L409.55 204.44L409.73 204.51L409.92 204.59L410.1 204.67L410.29 204.75L410.48 204.83L410.66 204.91L410.85 204.99L411.03 205.07L411.22 205.16L411.4 205.24L411.59 205.32L411.77 205.41L411.96 205.49L412.14 205.57L412.32 205.66L433.65 184.86L470.03 220.33L448.7 241.12L448.79 241.3L448.88 241.48L448.96 241.66L449.05 241.84L449.13 242.02L449.22 242.2L449.3 242.38L449.38 242.56L449.47 242.74L449.55 242.93L449.63 243.11L449.71 243.29L449.8 243.47L449.88 243.65L449.96 243.83L450.04 244.02L450.12 244.2L450.19 244.38L450.27 244.56L450.35 244.75L450.43 244.93L450.5 245.11L450.58 245.3L450.66 245.48L450.73 245.66L450.81 245.85L450.88 246.03L450.95 246.22L451.03 246.4L451.1 246.59L451.17 246.77L451.24 246.96L451.32 247.14L451.39 247.33L451.46 247.52L451.53 247.7L451.6 247.89L451.67 248.07L451.73 248.26L451.8 248.45L481.98 248.45L481.98 298.6L451.8 298.6L451.73 298.79L451.67 298.98L451.6 299.16L451.53 299.35L451.46 299.53L451.39 299.72L451.32 299.91L451.24 300.09L451.17 300.28L451.1 300.46L451.03 300.65L450.95 300.83L450.88 301.02L450.81 301.2L450.73 301.38L450.66 301.57L450.58 301.75L450.5 301.94L450.43 302.12L450.35 302.3L450.27 302.49L450.19 302.67L450.12 302.85L450.04 303.03L449.96 303.22L449.88 303.4L449.8 303.58L449.71 303.76L449.63 303.94L449.55 304.12L449.47 304.3L449.38 304.49L449.3 304.67L449.22 304.85L449.13 305.03L449.05 305.21L448.96 305.39L448.88 305.57L448.79 305.75L448.7 305.92L470.03 326.72L433.65 362.18L412.32 341.39L412.14 341.47L411.96 341.56L411.77 341.64L411.59 341.73L411.4 341.81L411.22 341.89L411.03 341.97L410.85 342.06L410.66 342.14L410.48 342.22L410.29 342.3L410.1 342.38L409.92 342.46L409.73 342.54L409.55 342.61L409.36 342.69L409.17 342.77L408.98 342.85L408.8 342.92L408.61 343L408.42 343.07L408.23 343.15L408.04 343.22L407.86 343.3L407.67 343.37L407.48 343.44L407.29 343.51L407.1 343.59L406.91 343.66L406.72 343.73L406.53 343.8L406.34 343.87L406.15 343.94L405.96 344.01L405.77 344.08L405.58 344.14L405.39 344.21L405.2 344.28L405 344.35L404.81 344.41L404.81 373.83L353.37 373.83L353.37 344.41L353.17 344.35L352.98 344.28L352.79 344.21L352.6 344.14L352.41 344.08L352.22 344.01L352.03 343.94L351.84 343.87L351.65 343.8L351.46 343.73L351.27 343.66L351.08 343.59L350.89 343.51L350.7 343.44L350.51 343.37L350.32 343.3L350.13 343.22L349.95 343.15L349.76 343.07L349.57 343L349.38 342.92L349.19 342.85L349.01 342.77L348.82 342.69L348.63 342.61L348.45 342.54L348.26 342.46L348.07 342.38L347.89 342.3L347.7 342.22L347.52 342.14L347.33 342.06L347.15 341.97L346.96 341.89L346.78 341.81L346.59 341.73L346.41 341.64L346.22 341.56L346.04 341.47L345.86 341.39L324.52 362.18L288.15 326.72L309.48 305.92L309.39 305.75L309.3 305.57L309.22 305.39L309.13 305.21L309.05 305.03L308.96 304.85L308.88 304.67L308.79 304.49L308.71 304.3L308.63 304.12L308.55 303.94L308.46 303.76L308.38 303.58L308.3 303.4L308.22 303.22L308.14 303.03L308.06 302.85L307.98 302.67L307.91 302.49L307.83 302.3L307.75 302.12L307.67 301.94L307.6 301.75L307.52 301.57L307.45 301.38L307.37 301.2L307.3 301.02L307.22 300.83L307.15 300.65L307.08 300.46L307.01 300.28L306.93 300.09L306.86 299.91L306.79 299.72L306.72 299.53L306.65 299.35L306.58 299.16L306.51 298.98L306.44 298.79L306.38 298.6L276.2 298.6L276.2 248.45L306.38 248.45L306.44 248.26L306.51 248.07L306.58 247.89L306.65 247.7L306.72 247.52L306.79 247.33L306.86 247.14L306.93 246.96L307.01 246.77L307.08 246.59L307.15 246.4L307.22 246.22L307.3 246.03L307.37 245.85L307.45 245.66L307.52 245.48L307.6 245.3L307.67 245.11L307.75 244.93L307.83 244.75L307.91 244.56L307.98 244.38L308.06 244.2L308.14 244.02L308.22 243.83L308.3 243.65L308.38 243.47L308.46 243.29L308.55 243.11L308.63 242.93L308.71 242.74L308.79 242.56L308.88 242.38L308.96 242.2L309.05 242.02L309.13 241.84L309.22 241.66L309.3 241.48L309.39 241.3L309.48 241.12L288.15 220.33L324.52 184.86L345.86 205.66L346.04 205.57L346.22 205.49L346.41 205.41L346.59 205.32L346.78 205.24L346.96 205.16L347.15 205.07L347.33 204.99L347.52 204.91L347.7 204.83L347.89 204.75L348.07 204.67L348.26 204.59L348.45 204.51L348.63 204.44L348.82 204.36L349.01 204.28L349.19 204.2L349.38 204.13L349.57 204.05L349.76 203.98L349.95 203.9L350.13 203.83L350.32 203.75L350.51 203.68L350.7 203.61L350.89 203.53L351.08 203.46L351.27 203.39L351.46 203.32L351.65 203.25L351.84 203.18L352.03 203.11L352.22 203.04L352.41 202.97L352.6 202.9L352.79 202.84L352.98 202.77L353.17 202.7L353.37 202.64L353.37 173.22L404.81 173.22L404.81 202.64L405 202.7L405 202.7L405.2 202.77ZM361.55 213.26L361.19 213.36L360.83 213.46L360.48 213.56L360.12 213.67L359.76 213.78L359.4 213.89L359.05 214L358.69 214.11L358.34 214.23L357.99 214.35L357.63 214.47L357.28 214.59L356.93 214.71L356.58 214.84L356.23 214.97L355.88 215.1L355.53 215.23L355.18 215.36L354.84 215.5L354.49 215.64L354.15 215.78L353.8 215.92L353.46 216.06L353.12 216.21L352.78 216.35L352.44 216.5L352.1 216.65L351.76 216.81L351.42 216.96L351.08 217.12L350.75 217.28L350.41 217.44L350.08 217.6L349.74 217.77L349.41 217.94L349.08 218.11L348.75 218.28L348.42 218.45L348.09 218.62L347.77 218.8L343.52 221.12L324.52 202.6L306.33 220.33L325.33 238.85L322.96 242.99L322.77 243.31L322.6 243.63L322.42 243.95L322.24 244.27L322.07 244.59L321.9 244.92L321.73 245.24L321.56 245.57L321.4 245.89L321.23 246.22L321.07 246.55L320.91 246.88L320.76 247.21L320.6 247.54L320.45 247.87L320.3 248.2L320.15 248.54L320 248.87L319.85 249.21L319.71 249.54L319.57 249.88L319.43 250.22L319.29 250.56L319.16 250.89L319.02 251.23L318.89 251.58L318.76 251.92L318.64 252.26L318.51 252.6L318.39 252.95L318.27 253.29L318.15 253.64L318.03 253.98L317.92 254.33L317.8 254.68L317.69 255.02L317.58 255.37L317.48 255.72L317.37 256.07L317.27 256.42L315.95 260.99L289.06 260.99L289.06 286.06L315.95 286.06L317.27 290.63L317.37 290.98L317.48 291.33L317.58 291.68L317.69 292.03L317.8 292.37L317.92 292.72L318.03 293.07L318.15 293.41L318.27 293.76L318.39 294.1L318.51 294.45L318.64 294.79L318.76 295.13L318.89 295.47L319.02 295.81L319.16 296.15L319.29 296.49L319.43 296.83L319.57 297.17L319.71 297.51L319.85 297.84L320 298.18L320.15 298.51L320.3 298.85L320.45 299.18L320.6 299.51L320.76 299.84L320.91 300.17L321.07 300.5L321.23 300.83L321.4 301.16L321.56 301.48L321.73 301.81L321.9 302.13L322.07 302.46L322.24 302.78L322.42 303.1L322.6 303.42L322.77 303.74L322.96 304.06L325.33 308.2L306.33 326.72L324.52 344.45L343.52 325.93L347.77 328.25L348.09 328.43L348.42 328.6L348.75 328.77L349.08 328.94L349.41 329.11L349.74 329.28L350.08 329.44L350.41 329.61L350.75 329.77L351.08 329.93L351.42 330.09L351.76 330.24L352.1 330.39L352.44 330.55L352.78 330.7L353.12 330.84L353.46 330.99L353.8 331.13L354.15 331.27L354.49 331.41L354.84 331.55L355.18 331.69L355.53 331.82L355.88 331.95L356.23 332.08L356.58 332.21L356.93 332.34L357.28 332.46L357.63 332.58L357.99 332.7L358.34 332.82L358.69 332.94L359.05 333.05L359.4 333.16L359.76 333.27L360.12 333.38L360.48 333.49L360.83 333.59L361.19 333.69L361.55 333.79L366.23 335.08L366.23 361.29L391.95 361.29L391.95 335.08L396.63 333.79L396.99 333.69L397.34 333.59L397.7 333.49L398.06 333.38L398.42 333.27L398.77 333.16L399.13 333.05L399.49 332.94L399.84 332.82L400.19 332.7L400.55 332.58L400.9 332.46L401.25 332.34L401.6 332.21L401.95 332.08L402.3 331.95L402.65 331.82L402.99 331.69L403.34 331.55L403.69 331.41L404.03 331.27L404.37 331.13L404.72 330.99L405.06 330.84L405.4 330.7L405.74 330.55L406.08 330.39L406.42 330.24L406.76 330.09L407.1 329.93L407.43 329.77L407.77 329.61L408.1 329.44L408.43 329.28L408.77 329.11L409.1 328.94L409.43 328.77L409.76 328.6L410.09 328.43L410.41 328.25L414.66 325.93L433.65 344.45L451.85 326.72L432.85 308.2L435.22 304.06L435.4 303.74L435.58 303.42L435.76 303.1L435.93 302.78L436.11 302.46L436.28 302.13L436.45 301.81L436.62 301.48L436.78 301.16L436.94 300.83L437.1 300.5L437.26 300.17L437.42 299.84L437.58 299.51L437.73 299.18L437.88 298.85L438.03 298.51L438.18 298.18L438.32 297.84L438.47 297.51L438.61 297.17L438.75 296.83L438.89 296.49L439.02 296.15L439.15 295.81L439.28 295.47L439.41 295.13L439.54 294.79L439.67 294.45L439.79 294.1L439.91 293.76L440.03 293.41L440.15 293.07L440.26 292.72L440.37 292.37L440.49 292.03L440.59 291.68L440.7 291.33L440.81 290.98L440.91 290.63L442.23 286.06L469.12 286.06L469.12 260.99L442.23 260.99L440.91 256.42L440.81 256.07L440.7 255.72L440.59 255.37L440.49 255.02L440.37 254.68L440.26 254.33L440.15 253.98L440.03 253.64L439.91 253.29L439.79 252.95L439.67 252.6L439.54 252.26L439.41 251.92L439.28 251.58L439.15 251.23L439.02 250.89L438.89 250.56L438.75 250.22L438.61 249.88L438.47 249.54L438.32 249.21L438.18 248.87L438.03 248.54L437.88 248.2L437.73 247.87L437.58 247.54L437.42 247.21L437.26 246.88L437.1 246.55L436.94 246.22L436.78 245.89L436.62 245.57L436.45 245.24L436.28 244.92L436.11 244.59L435.93 244.27L435.76 243.95L435.58 243.63L435.4 243.31L435.22 242.99L432.85 238.85L451.85 220.33L433.65 202.6L414.66 221.12L410.41 218.8L410.09 218.62L409.76 218.45L409.43 218.28L409.1 218.11L408.77 217.94L408.43 217.77L408.1 217.6L407.77 217.44L407.43 217.28L407.1 217.12L406.76 216.96L406.42 216.81L406.08 216.65L405.74 216.5L405.4 216.35L405.06 216.21L404.72 216.06L404.37 215.92L404.03 215.78L403.69 215.64L403.34 215.5L402.99 215.36L402.65 215.23L402.3 215.1L401.95 214.97L401.6 214.84L401.25 214.71L400.9 214.59L400.55 214.47L400.19 214.35L399.84 214.23L399.49 214.11L399.13 214L398.77 213.89L398.42 213.78L398.06 213.67L397.7 213.56L397.34 213.46L396.99 213.36L396.63 213.26L391.95 211.97L391.95 185.75L366.23 185.75L366.23 211.97L366.23 211.97L361.55 213.26Z" id="cgAst9o2J"></path><path d="M460.97 33.19L461.01 33.2L461.05 33.2L461.09 33.21L461.14 33.22L461.18 33.23L461.22 33.24L461.26 33.25L461.3 33.27L461.33 33.28L461.37 33.3L461.41 33.32L461.44 33.34L461.48 33.36L461.51 33.38L461.54 33.41L461.57 33.43L461.61 33.46L461.64 33.48L461.66 33.51L461.69 33.54L461.72 33.57L461.74 33.6L461.77 33.63L461.79 33.66L461.81 33.69L461.83 33.73L461.85 33.76L461.86 33.8L461.88 33.83L461.89 33.87L461.91 33.91L461.92 33.95L461.93 33.99L461.93 34.03L461.94 34.06L461.94 34.11L461.95 34.15L461.95 34.19L461.95 54.13L483.33 54.13L483.37 54.13L483.42 54.13L483.46 54.14L483.5 54.14L483.54 54.15L483.58 54.16L483.63 54.17L483.67 54.18L483.7 54.19L483.74 54.21L483.78 54.22L483.82 54.24L483.86 54.26L483.89 54.28L483.93 54.3L483.96 54.32L483.99 54.35L484.02 54.37L484.05 54.39L484.08 54.42L484.11 54.45L484.14 54.48L484.17 54.51L484.19 54.54L484.21 54.57L484.24 54.6L484.26 54.63L484.28 54.67L484.3 54.7L484.31 54.74L484.33 54.77L484.34 54.81L484.35 54.85L484.37 54.89L484.37 54.93L484.38 54.96L484.39 55L484.39 55.04L484.4 55.09L484.4 55.13L484.4 71.08L484.4 71.12L484.39 71.16L484.39 71.2L484.38 71.24L484.37 71.28L484.37 71.32L484.35 71.36L484.34 71.4L484.33 71.43L484.31 71.47L484.3 71.5L484.28 71.54L484.26 71.57L484.24 71.61L484.21 71.64L484.19 71.67L484.17 71.7L484.14 71.73L484.11 71.76L484.08 71.79L484.05 71.81L484.02 71.84L483.99 71.86L483.96 71.89L483.93 71.91L483.89 71.93L483.86 71.95L483.82 71.97L483.78 71.98L483.74 72L483.7 72.01L483.67 72.03L483.63 72.04L483.58 72.05L483.54 72.06L483.5 72.06L483.46 72.07L483.42 72.07L483.37 72.08L483.33 72.08L461.95 72.08L461.95 92.02L461.95 92.06L461.94 92.1L461.94 92.14L461.93 92.18L461.93 92.22L461.92 92.26L461.91 92.3L461.89 92.34L461.88 92.37L461.86 92.41L461.85 92.44L461.83 92.48L461.81 92.51L461.79 92.55L461.77 92.58L461.74 92.61L461.72 92.64L461.69 92.67L461.66 92.7L461.64 92.73L461.61 92.75L461.57 92.78L461.54 92.8L461.51 92.82L461.48 92.85L461.44 92.87L461.41 92.89L461.37 92.91L461.33 92.92L461.3 92.94L461.26 92.95L461.22 92.97L461.18 92.98L461.14 92.99L461.09 93L461.05 93L461.01 93.01L460.97 93.01L460.92 93.02L460.88 93.02L443.78 93.02L443.73 93.02L443.69 93.01L443.65 93.01L443.6 93L443.56 93L443.52 92.99L443.48 92.98L443.44 92.97L443.4 92.95L443.36 92.94L443.32 92.92L443.28 92.91L443.25 92.89L443.21 92.87L443.18 92.85L443.14 92.82L443.11 92.8L443.08 92.78L443.05 92.75L443.02 92.73L442.99 92.7L442.96 92.67L442.94 92.64L442.91 92.61L442.89 92.58L442.87 92.55L442.85 92.51L442.83 92.48L442.81 92.44L442.79 92.41L442.78 92.37L442.76 92.34L442.75 92.3L442.74 92.26L442.73 92.22L442.72 92.18L442.71 92.14L442.71 92.1L442.71 92.06L442.71 92.02L442.71 72.08L421.33 72.08L421.28 72.08L421.24 72.07L421.2 72.07L421.15 72.06L421.11 72.06L421.07 72.05L421.03 72.04L420.99 72.03L420.95 72.01L420.91 72L420.87 71.98L420.84 71.97L420.8 71.95L420.76 71.93L420.73 71.91L420.7 71.89L420.66 71.86L420.63 71.84L420.6 71.81L420.57 71.79L420.54 71.76L420.52 71.73L420.49 71.7L420.46 71.67L420.44 71.64L420.42 71.61L420.4 71.57L420.38 71.54L420.36 71.5L420.34 71.47L420.33 71.43L420.31 71.4L420.3 71.36L420.29 71.32L420.28 71.28L420.27 71.24L420.27 71.2L420.26 71.16L420.26 71.12L420.26 71.08L420.26 55.13L420.26 55.09L420.26 55.04L420.27 55L420.27 54.96L420.28 54.93L420.29 54.89L420.3 54.85L420.31 54.81L420.33 54.77L420.34 54.74L420.36 54.7L420.38 54.67L420.4 54.63L420.42 54.6L420.44 54.57L420.46 54.54L420.49 54.51L420.52 54.48L420.54 54.45L420.57 54.42L420.6 54.39L420.63 54.37L420.66 54.35L420.7 54.32L420.73 54.3L420.76 54.28L420.8 54.26L420.84 54.24L420.87 54.22L420.91 54.21L420.95 54.19L420.99 54.18L421.03 54.17L421.07 54.16L421.11 54.15L421.15 54.14L421.2 54.14L421.24 54.13L421.28 54.13L421.33 54.13L442.71 54.13L442.71 34.19L442.71 34.15L442.71 34.11L442.71 34.06L442.72 34.03L442.73 33.99L442.74 33.95L442.75 33.91L442.76 33.87L442.78 33.83L442.79 33.8L442.81 33.76L442.83 33.73L442.85 33.69L442.87 33.66L442.89 33.63L442.91 33.6L442.94 33.57L442.96 33.54L442.99 33.51L443.02 33.48L443.05 33.46L443.08 33.43L443.11 33.41L443.14 33.38L443.18 33.36L443.21 33.34L443.25 33.32L443.28 33.3L443.32 33.28L443.36 33.27L443.4 33.25L443.44 33.24L443.48 33.23L443.52 33.22L443.56 33.21L443.6 33.2L443.65 33.2L443.69 33.19L443.73 33.19L443.78 33.19L460.88 33.19L460.92 33.19L460.97 33.19Z" id="e3nLEWl1T"></path><path d="M613.22 480.37C613.43 480.45 613.54 480.69 613.46 480.9C612.33 483.83 609.08 492.27 607.95 495.21C607.87 495.42 607.64 495.53 607.43 495.45C587.54 487.8 528.26 465.01 508.37 457.37C508.16 457.29 508.06 457.05 508.14 456.84C509.27 453.9 512.51 445.46 513.64 442.53C513.72 442.32 513.96 442.21 514.17 442.29C534.05 449.94 593.34 472.73 613.22 480.37Z" id="mFvS3zRsQ"></path><path d="M621.5 461.93C621.71 462.01 621.81 462.24 621.73 462.45C620.6 465.39 617.36 473.83 616.23 476.77C616.15 476.97 615.91 477.08 615.71 477C595.82 469.35 536.54 446.56 516.65 438.92C516.44 438.84 516.34 438.6 516.42 438.4C517.55 435.46 520.79 427.02 521.92 424.08C522 423.87 522.23 423.77 522.44 423.85C542.33 431.49 601.61 454.28 621.5 461.93Z" id="b3M82PIpFy"></path><path d="M495.03 93.02L495.06 93.02L495.09 93.03L495.12 93.03L495.15 93.04L495.18 93.04L495.2 93.05L495.23 93.06L495.26 93.07L495.28 93.08L495.31 93.09L495.33 93.1L495.36 93.12L495.38 93.13L495.41 93.15L495.43 93.16L495.45 93.18L495.47 93.2L495.49 93.21L495.51 93.23L495.53 93.25L495.55 93.27L495.57 93.29L495.58 93.31L495.6 93.33L495.61 93.36L495.63 93.38L495.64 93.4L495.65 93.43L495.66 93.45L495.67 93.48L495.68 93.5L495.69 93.53L495.69 93.55L495.7 93.58L495.7 93.6L495.71 93.63L495.71 93.66L495.71 93.69L495.71 107.08L510.48 107.08L510.51 107.08L510.54 107.08L510.57 107.08L510.6 107.09L510.63 107.09L510.66 107.1L510.68 107.1L510.71 107.11L510.74 107.12L510.77 107.13L510.79 107.14L510.82 107.15L510.84 107.16L510.87 107.18L510.89 107.19L510.91 107.21L510.94 107.22L510.96 107.24L510.98 107.26L511 107.27L511.02 107.29L511.04 107.31L511.06 107.33L511.07 107.35L511.09 107.37L511.11 107.39L511.12 107.42L511.13 107.44L511.15 107.46L511.16 107.49L511.17 107.51L511.18 107.54L511.19 107.56L511.2 107.59L511.2 107.61L511.21 107.64L511.21 107.67L511.21 107.69L511.22 107.72L511.22 107.75L511.22 118.46L511.22 118.49L511.21 118.51L511.21 118.54L511.21 118.57L511.2 118.59L511.2 118.62L511.19 118.65L511.18 118.67L511.17 118.7L511.16 118.72L511.15 118.74L511.13 118.77L511.12 118.79L511.11 118.81L511.09 118.83L511.07 118.86L511.06 118.88L511.04 118.9L511.02 118.91L511 118.93L510.98 118.95L510.96 118.97L510.94 118.98L510.91 119L510.89 119.01L510.87 119.03L510.84 119.04L510.82 119.05L510.79 119.07L510.77 119.08L510.74 119.09L510.71 119.1L510.68 119.1L510.66 119.11L510.63 119.12L510.6 119.12L510.57 119.12L510.54 119.13L510.51 119.13L510.48 119.13L495.71 119.13L495.71 132.52L495.71 132.55L495.71 132.57L495.7 132.6L495.7 132.63L495.69 132.65L495.69 132.68L495.68 132.71L495.67 132.73L495.66 132.76L495.65 132.78L495.64 132.8L495.63 132.83L495.61 132.85L495.6 132.87L495.58 132.89L495.57 132.92L495.55 132.94L495.53 132.96L495.51 132.97L495.49 132.99L495.47 133.01L495.45 133.03L495.43 133.04L495.41 133.06L495.38 133.08L495.36 133.09L495.33 133.1L495.31 133.11L495.28 133.13L495.26 133.14L495.23 133.15L495.2 133.16L495.18 133.16L495.15 133.17L495.12 133.18L495.09 133.18L495.06 133.18L495.03 133.19L495 133.19L494.97 133.19L483.15 133.19L483.12 133.19L483.09 133.19L483.06 133.18L483.03 133.18L483 133.18L482.98 133.17L482.95 133.16L482.92 133.16L482.89 133.15L482.87 133.14L482.84 133.13L482.81 133.11L482.79 133.1L482.76 133.09L482.74 133.08L482.72 133.06L482.7 133.04L482.67 133.03L482.65 133.01L482.63 132.99L482.61 132.97L482.59 132.96L482.58 132.94L482.56 132.92L482.54 132.89L482.53 132.87L482.51 132.85L482.5 132.83L482.48 132.8L482.47 132.78L482.46 132.76L482.45 132.73L482.44 132.71L482.44 132.68L482.43 132.65L482.42 132.63L482.42 132.6L482.42 132.57L482.42 132.55L482.42 132.52L482.42 119.13L467.65 119.13L467.61 119.13L467.58 119.13L467.55 119.12L467.53 119.12L467.5 119.12L467.47 119.11L467.44 119.1L467.41 119.1L467.38 119.09L467.36 119.08L467.33 119.07L467.31 119.05L467.28 119.04L467.26 119.03L467.23 119.01L467.21 119L467.19 118.98L467.16 118.97L467.14 118.95L467.12 118.93L467.1 118.91L467.08 118.9L467.07 118.88L467.05 118.86L467.03 118.83L467.02 118.81L467 118.79L466.99 118.77L466.98 118.74L466.96 118.72L466.95 118.7L466.94 118.67L466.94 118.65L466.93 118.62L466.92 118.59L466.92 118.57L466.91 118.54L466.91 118.51L466.91 118.49L466.91 118.46L466.91 107.75L466.91 107.72L466.91 107.69L466.91 107.67L466.92 107.64L466.92 107.61L466.93 107.59L466.94 107.56L466.94 107.54L466.95 107.51L466.96 107.49L466.98 107.46L466.99 107.44L467 107.42L467.02 107.39L467.03 107.37L467.05 107.35L467.07 107.33L467.08 107.31L467.1 107.29L467.12 107.27L467.14 107.26L467.16 107.24L467.19 107.22L467.21 107.21L467.23 107.19L467.26 107.18L467.28 107.16L467.31 107.15L467.33 107.14L467.36 107.13L467.38 107.12L467.41 107.11L467.44 107.1L467.47 107.1L467.5 107.09L467.53 107.09L467.55 107.08L467.58 107.08L467.61 107.08L467.65 107.08L482.42 107.08L482.42 93.69L482.42 93.66L482.42 93.63L482.42 93.6L482.42 93.58L482.43 93.55L482.44 93.53L482.44 93.5L482.45 93.48L482.46 93.45L482.47 93.43L482.48 93.4L482.5 93.38L482.51 93.36L482.53 93.33L482.54 93.31L482.56 93.29L482.58 93.27L482.59 93.25L482.61 93.23L482.63 93.21L482.65 93.2L482.67 93.18L482.7 93.16L482.72 93.15L482.74 93.13L482.76 93.12L482.79 93.1L482.81 93.09L482.84 93.08L482.87 93.07L482.89 93.06L482.92 93.05L482.95 93.04L482.98 93.04L483 93.03L483.03 93.03L483.06 93.02L483.09 93.02L483.12 93.02L483.15 93.02L494.97 93.02L495 93.02L495.03 93.02Z" id="aRJTn5xlE"></path></defs><g><g><g><use xlink:href="#bA5nHczUf" opacity="1" fill="#f3f9ff" fill-opacity="0.65"></use><g><use xlink:href="#bA5nHczUf" opacity="1" fill-opacity="0" stroke="#000000" stroke-width="1" stroke-opacity="0"></use></g></g><g><use xlink:href="#a13o2hbvix" opacity="1" fill="#fdfdfd" fill-opacity="0.85"></use><g><use xlink:href="#a13o2hbvix" opacity="1" fill-opacity="0" stroke="#000000" stroke-width="1" stroke-opacity="0"></use></g></g><g><use xlink:href="#a6WR1L1hD" opacity="1" fill="#86b6ea" fill-opacity="0.17"></use><g><use xlink:href="#a6WR1L1hD" opacity="1" fill-opacity="0" stroke="#000000" stroke-width="1" stroke-opacity="0"></use></g></g><g><use xlink:href="#ajKKQHhXE" opacity="1" fill="#5969b7" fill-opacity="0.84"></use></g><g><use xlink:href="#c2N0uRftEa" opacity="1" fill="#fdfdfd" fill-opacity="0.84"></use></g><g><use xlink:href="#cgAst9o2J" opacity="1" fill="#000000" fill-opacity="1"></use><g><use xlink:href="#cgAst9o2J" opacity="1" fill-opacity="0" stroke="#000000" stroke-width="1" stroke-opacity="0"></use></g></g><g><use xlink:href="#e3nLEWl1T" opacity="1" fill="#6b6abf" fill-opacity="0.85"></use></g><g><use xlink:href="#mFvS3zRsQ" opacity="1" fill="#5969b7" fill-opacity="0.84"></use></g><g><use xlink:href="#b3M82PIpFy" opacity="1" fill="#5969b7" fill-opacity="0.84"></use></g><g><use xlink:href="#aRJTn5xlE" opacity="1" fill="#6a69be" fill-opacity="0.85"></use></g></g></g></svg>