<?xml version="1.0" encoding="UTF-8" standalone="no"?>
<!DOCTYPE svg PUBLIC "-//W3C//DTD SVG 1.1//EN" "http://www.w3.org/Graphics/SVG/1.1/DTD/svg11.dtd">
<svg version="1.1" xmlns="http://www.w3.org/2000/svg" xmlns:xlink="http://www.w3.org/1999/xlink" preserveAspectRatio="xMidYMid meet" viewBox="0 0 640 640" width="640" height="640"><defs><path d="M639.63 246.71C640.93 311.62 640.07 368.04 615.14 420.96C590.37 473.99 541.39 523.28 479.3 542.53C417.06 561.66 341.72 550.64 272.14 528.36C202.71 506.2 139.03 472.66 89.48 421.93C40.06 371.19 4.63 303.26 32.57 257.61C60.38 211.96 151.57 188.59 218.7 158.56C285.83 128.53 329.04 91.96 393.87 70.29C458.7 48.62 545.13 41.96 590.08 75.25C635.02 108.55 638.34 181.81 639.63 246.71Z" id="b1le8UVd3k"></path><path d="M590.06 305.05C576.07 363.51 562.42 413.94 531.6 456.45C500.86 499.11 452.9 533.6 402.06 538.57C351.14 543.39 297.38 518.59 250.52 484.82C203.74 451.2 163.89 408.5 138.55 353.19C113.32 297.9 102.49 229.96 133.9 194.56C165.2 159.13 238.73 156.24 295.82 142.61C352.9 128.98 393.63 104.74 447.07 98.15C500.51 91.55 566.63 102.7 592.55 141.47C618.46 180.23 604.05 246.59 590.06 305.05Z" id="b4QPDJQ83V"></path><path d="M450.9 81.31L451.57 81.38L452.24 81.48L452.89 81.6L453.54 81.75L454.18 81.92L454.81 82.12L455.43 82.34L456.03 82.58L456.63 82.85L457.21 83.14L457.78 83.46L458.33 83.79L458.87 84.14L459.4 84.52L459.91 84.91L460.41 85.33L460.89 85.76L461.35 86.21L461.79 86.68L462.22 87.16L462.63 87.66L463.02 88.18L463.39 88.71L463.74 89.26L464.07 89.82L464.38 90.4L464.67 90.98L464.93 91.58L465.17 92.2L465.39 92.82L465.59 93.46L465.76 94.1L465.91 94.76L466.03 95.42L466.12 96.1L466.19 96.78L466.23 97.47L466.24 98.17L466.24 101.54L566.57 101.54L566.57 128.6L643.33 128.6L627.28 169.18L643.33 209.75L533.13 209.75L533.13 182.7L466.24 182.7L466.24 202.99L479.62 202.99L479.62 223.28L479.61 224.07L479.58 224.86L479.53 225.65L479.47 226.44L479.38 227.22L479.28 227.99L479.16 228.77L479.03 229.54L478.87 230.3L478.7 231.06L478.51 231.81L478.31 232.56L478.08 233.3L477.84 234.04L477.59 234.77L477.32 235.49L477.03 236.21L476.72 236.92L476.4 237.62L476.07 238.32L475.72 239L475.35 239.68L474.97 240.35L474.57 241.01L474.16 241.66L473.73 242.31L473.29 242.94L472.83 243.56L472.36 244.17L471.87 244.78L471.37 245.37L470.86 245.95L470.33 246.52L469.78 247.07L469.23 247.62L468.66 248.15L468.07 248.67L467.48 249.18L466.87 249.68L466.24 250.16L466.24 487.04L432.8 487.04L432.8 257.1L372.61 257.1L372.61 487.04L359.23 487.04L359.23 243.57L446.18 243.57L447.01 243.55L447.83 243.5L448.63 243.42L449.43 243.31L450.22 243.16L451 242.98L451.77 242.77L452.52 242.54L453.26 242.27L453.99 241.98L454.7 241.65L455.4 241.31L456.08 240.93L456.75 240.53L457.4 240.11L458.03 239.66L458.64 239.18L459.24 238.69L459.81 238.17L460.37 237.63L460.9 237.07L461.41 236.49L461.91 235.88L462.37 235.26L462.82 234.63L463.24 233.97L463.63 233.3L464.01 232.61L464.35 231.9L464.67 231.18L464.96 230.44L465.22 229.7L465.46 228.93L465.66 228.16L465.84 227.37L465.98 226.57L466.1 225.76L466.18 224.95L466.23 224.12L466.24 223.28L466.24 216.52L285.66 216.52L284.28 216.55L282.92 216.63L281.57 216.77L280.24 216.97L278.92 217.21L277.63 217.51L276.35 217.86L275.1 218.25L273.86 218.7L272.65 219.19L271.46 219.72L270.3 220.3L269.16 220.93L268.05 221.6L266.97 222.31L265.92 223.06L264.9 223.84L263.91 224.67L262.95 225.53L262.03 226.43L261.14 227.37L260.28 228.34L259.46 229.34L258.68 230.37L257.94 231.44L257.24 232.53L256.58 233.65L255.96 234.8L255.39 235.98L254.86 237.18L254.37 238.4L253.93 239.65L253.54 240.92L253.2 242.21L252.91 243.52L252.66 244.85L252.47 246.2L252.33 247.56L252.25 248.94L252.22 250.33L252.22 317.96L252.24 318.8L252.29 319.63L252.37 320.45L252.48 321.26L252.63 322.05L252.8 322.84L253.01 323.62L253.24 324.38L253.5 325.13L253.8 325.86L254.11 326.58L254.46 327.29L254.83 327.98L255.23 328.65L255.65 329.31L256.09 329.95L256.56 330.57L257.05 331.17L257.56 331.75L258.1 332.31L258.65 332.85L259.23 333.37L259.82 333.87L260.43 334.34L261.07 334.79L261.71 335.21L262.38 335.61L263.06 335.99L263.76 336.34L264.47 336.66L265.2 336.95L265.94 337.22L266.7 337.46L267.46 337.66L268.24 337.84L269.03 337.99L269.83 338.1L270.64 338.18L271.46 338.24L272.28 338.25L278.97 338.25L278.97 243.57L292.35 243.57L292.35 487.04L278.97 487.04L278.97 351.78L272.28 351.78L270.91 351.75L269.54 351.67L268.19 351.53L266.86 351.33L265.55 351.09L264.25 350.79L262.98 350.44L261.72 350.05L260.49 349.6L259.27 349.11L258.09 348.58L256.92 347.99L255.79 347.37L254.68 346.7L253.6 345.99L252.54 345.24L251.52 344.46L250.53 343.63L249.57 342.76L248.65 341.86L247.76 340.93L246.91 339.96L246.09 338.96L245.31 337.93L244.57 336.86L243.87 335.77L243.21 334.65L242.59 333.5L242.01 332.32L241.48 331.12L241 329.9L240.56 328.65L240.17 327.38L239.82 326.09L239.53 324.78L239.29 323.45L239.1 322.1L238.96 320.74L238.87 319.36L238.84 317.96L238.84 250.33L238.88 248.38L239 246.45L239.2 244.54L239.46 242.66L239.8 240.8L240.21 238.96L240.69 237.16L241.24 235.38L241.86 233.63L242.54 231.92L243.28 230.23L244.08 228.59L244.95 226.98L245.87 225.41L246.85 223.88L247.89 222.39L248.98 220.94L250.13 219.54L251.33 218.18L252.57 216.87L253.87 215.61L255.21 214.4L256.59 213.25L258.02 212.14L259.5 211.09L261.01 210.1L262.57 209.17L264.16 208.29L265.78 207.48L267.45 206.73L269.14 206.04L270.87 205.42L272.63 204.86L274.42 204.38L276.23 203.96L278.07 203.62L279.94 203.35L281.82 203.15L283.73 203.03L285.66 202.99L432.8 202.99L432.8 98.17L432.82 97.47L432.86 96.78L432.93 96.1L433.02 95.42L433.14 94.76L433.29 94.1L433.46 93.46L433.66 92.82L433.88 92.2L434.12 91.58L434.38 90.98L434.67 90.4L434.98 89.82L435.31 89.26L435.66 88.71L436.03 88.18L436.42 87.66L436.83 87.16L437.26 86.68L437.7 86.21L438.16 85.76L438.64 85.33L439.14 84.91L439.65 84.52L440.18 84.14L440.72 83.79L441.27 83.46L441.84 83.14L442.42 82.85L443.02 82.58L443.62 82.34L444.24 82.12L444.87 81.92L445.51 81.75L446.15 81.6L446.81 81.48L447.48 81.38L448.15 81.31L448.84 81.27L449.52 81.26L450.21 81.27L450.9 81.31ZM319.1 487.04L319.1 358.54L332.48 358.54L332.48 487.04L319.1 487.04ZM452.54 256.49L452.37 256.52L452.21 256.55L452.04 256.58L451.88 256.61L451.71 256.64L451.54 256.67L451.38 256.69L451.21 256.72L451.05 256.74L450.88 256.77L450.71 256.79L450.55 256.81L450.38 256.84L450.21 256.86L450.04 256.88L449.88 256.9L449.71 256.91L449.54 256.93L449.37 256.95L449.21 256.96L449.04 256.98L448.87 256.99L448.7 257L448.54 257.02L448.37 257.03L448.2 257.04L448.03 257.05L447.86 257.06L447.7 257.06L447.53 257.07L447.36 257.08L447.19 257.08L447.02 257.09L446.85 257.09L446.69 257.09L446.52 257.09L446.35 257.1L446.18 257.1L446.18 473.51L452.87 473.51L452.87 256.42L452.7 256.46L452.54 256.49ZM449.25 94.79L449.12 94.81L448.98 94.83L448.85 94.85L448.72 94.88L448.59 94.92L448.47 94.96L448.34 95L448.22 95.05L448.1 95.1L447.99 95.16L447.87 95.22L447.76 95.29L447.65 95.36L447.55 95.44L447.45 95.52L447.35 95.6L447.25 95.68L447.16 95.77L447.07 95.87L446.99 95.96L446.9 96.07L446.83 96.17L446.75 96.28L446.68 96.38L446.62 96.5L446.55 96.61L446.5 96.73L446.44 96.85L446.39 96.97L446.35 97.1L446.31 97.22L446.28 97.35L446.25 97.48L446.22 97.62L446.2 97.75L446.19 97.89L446.18 98.03L446.18 98.17L446.18 202.99L452.87 202.99L452.87 98.17L452.87 98.03L452.86 97.89L452.84 97.75L452.83 97.62L452.8 97.48L452.77 97.35L452.74 97.22L452.7 97.1L452.65 96.97L452.61 96.85L452.55 96.73L452.5 96.61L452.43 96.5L452.37 96.38L452.3 96.28L452.22 96.17L452.15 96.07L452.06 95.96L451.98 95.87L451.89 95.77L451.8 95.68L451.7 95.6L451.6 95.52L451.5 95.44L451.39 95.36L451.29 95.29L451.18 95.22L451.06 95.16L450.95 95.1L450.83 95.05L450.71 95L450.58 94.96L450.46 94.92L450.33 94.88L450.2 94.85L450.07 94.83L449.93 94.81L449.8 94.79L449.66 94.79L449.52 94.78L449.39 94.79L449.25 94.79ZM566.57 182.7L546.5 182.7L546.5 196.23L623.57 196.23L612.87 169.18L623.57 142.13L566.57 142.13L566.57 182.7ZM329.08 108.44L330.7 108.61L332.3 108.84L333.88 109.13L335.43 109.49L336.97 109.9L338.47 110.38L339.96 110.91L341.41 111.5L342.84 112.14L344.23 112.84L345.6 113.59L346.93 114.39L348.23 115.24L349.49 116.14L350.72 117.08L351.91 118.08L353.06 119.11L354.17 120.19L355.23 121.32L356.26 122.48L357.24 123.68L358.18 124.92L359.07 126.2L359.91 127.51L360.7 128.86L361.44 130.24L362.13 131.65L362.77 133.09L363.35 134.56L363.88 136.06L364.34 137.59L364.75 139.14L365.11 140.71L365.4 142.3L365.62 143.92L365.79 145.56L365.89 147.21L365.92 148.89L365.89 150.56L365.79 152.21L365.62 153.85L365.4 155.47L365.11 157.07L364.75 158.64L364.34 160.19L363.88 161.71L363.35 163.21L362.77 164.68L362.13 166.12L361.44 167.54L360.7 168.92L359.91 170.26L359.07 171.58L358.18 172.85L357.24 174.09L356.26 175.3L355.23 176.46L354.17 177.58L353.06 178.66L351.91 179.7L350.72 180.69L349.49 181.64L348.23 182.54L346.93 183.39L345.6 184.19L344.23 184.94L342.84 185.63L341.41 186.28L339.96 186.86L338.47 187.4L336.97 187.87L335.43 188.29L333.88 188.64L332.3 188.93L330.7 189.16L329.08 189.33L327.45 189.43L325.79 189.46L324.14 189.43L322.5 189.33L320.88 189.16L319.28 188.93L317.71 188.63L316.15 188.28L314.62 187.86L313.11 187.39L311.63 186.86L310.18 186.27L308.75 185.62L307.36 184.93L305.99 184.18L304.66 183.38L303.36 182.52L302.1 181.63L300.88 180.68L299.69 179.69L298.54 178.65L297.43 177.57L296.36 176.45L295.33 175.29L294.35 174.08L293.42 172.84L292.53 171.57L291.69 170.25L290.89 168.91L290.15 167.53L289.46 166.12L288.83 164.68L288.24 163.21L287.72 161.71L287.25 160.18L286.84 158.63L286.48 157.06L286.19 155.47L285.96 153.85L285.8 152.21L285.7 150.56L285.66 148.89L285.7 147.21L285.79 145.56L285.96 143.92L286.19 142.3L286.48 140.71L286.83 139.14L287.24 137.59L287.71 136.06L288.23 134.56L288.82 133.09L289.45 131.65L290.14 130.24L290.88 128.86L291.67 127.51L292.52 126.2L293.41 124.92L294.34 123.68L295.32 122.48L296.35 121.32L297.42 120.19L298.53 119.11L299.68 118.08L300.87 117.08L302.09 116.14L303.36 115.24L304.65 114.39L305.99 113.59L307.35 112.84L308.75 112.14L310.17 111.5L311.63 110.91L313.11 110.38L314.62 109.9L316.15 109.49L317.7 109.13L319.28 108.84L320.88 108.61L322.5 108.44L324.14 108.34L325.79 108.31L327.45 108.34L329.08 108.44ZM323.14 121.97L321.84 122.13L320.56 122.35L319.3 122.64L318.06 122.98L316.85 123.38L315.67 123.84L314.51 124.35L313.39 124.91L312.29 125.53L311.22 126.19L310.19 126.91L309.2 127.67L308.24 128.47L307.32 129.32L306.44 130.21L305.6 131.14L304.8 132.11L304.05 133.12L303.35 134.16L302.69 135.23L302.08 136.34L301.52 137.48L301.02 138.65L300.57 139.85L300.17 141.07L299.83 142.32L299.55 143.6L299.33 144.89L299.17 146.2L299.07 147.54L299.04 148.89L299.07 150.24L299.17 151.57L299.33 152.88L299.55 154.18L299.83 155.45L300.17 156.7L300.57 157.92L301.02 159.12L301.52 160.29L302.08 161.43L302.69 162.54L303.35 163.62L304.05 164.66L304.8 165.67L305.6 166.64L306.44 167.57L307.32 168.46L308.24 169.3L309.2 170.11L310.19 170.87L311.22 171.58L312.29 172.25L313.39 172.86L314.51 173.43L315.67 173.94L316.85 174.39L318.06 174.79L319.3 175.14L320.56 175.42L321.84 175.65L323.14 175.81L324.46 175.91L325.79 175.94L327.13 175.91L328.44 175.81L329.74 175.65L331.02 175.42L332.28 175.14L333.52 174.79L334.73 174.39L335.91 173.94L337.07 173.43L338.2 172.86L339.29 172.25L340.36 171.58L341.39 170.87L342.38 170.11L343.34 169.3L344.26 168.46L345.14 167.57L345.98 166.64L346.78 165.67L347.53 164.66L348.23 163.62L348.89 162.54L349.5 161.43L350.06 160.29L350.56 159.12L351.02 157.92L351.41 156.7L351.75 155.45L352.03 154.18L352.26 152.88L352.42 151.57L352.51 150.24L352.55 148.89L352.51 147.54L352.42 146.2L352.26 144.89L352.03 143.6L351.75 142.32L351.41 141.07L351.02 139.85L350.56 138.65L350.06 137.48L349.5 136.34L348.89 135.23L348.23 134.16L347.53 133.12L346.78 132.11L345.98 131.14L345.14 130.21L344.26 129.32L343.34 128.47L342.38 127.67L341.39 126.91L340.36 126.19L339.29 125.53L338.2 124.91L337.07 124.35L335.91 123.84L334.73 123.38L333.52 122.98L332.28 122.64L331.02 122.35L329.74 122.13L328.44 121.97L327.13 121.87L325.79 121.84L324.46 121.87L323.14 121.97ZM466.24 169.18L553.19 169.18L553.19 115.07L466.24 115.07L466.24 169.18Z" id="b3RqSTBcM1"></path><path d="M117.16 146.82C111.74 157.26 106.84 166.22 99.8 173.29C92.76 180.38 83.6 185.52 75.69 185.14C67.77 184.73 61.1 178.77 55.97 171.33C50.85 163.93 47.29 155.02 46.62 144.15C45.96 133.29 48.19 120.47 54.91 114.73C61.62 108.99 72.83 110.34 82.17 109.28C91.52 108.22 99.01 104.79 107.41 104.94C115.81 105.09 125.11 108.84 126.8 116.67C128.5 124.49 122.57 136.38 117.16 146.82Z" id="b9uCyG4w"></path><path d="M132.49 487.69C117.97 478.24 105.22 470.22 91.8 465.09C78.35 459.92 64.26 457.68 56.14 461.06C48.02 464.46 45.9 473.49 46.65 483.57C47.39 493.61 51.04 504.72 59.43 516.9C67.82 529.07 80.93 542.33 92.91 546.12C104.88 549.93 115.72 544.27 126.58 541.95C137.44 539.63 148.31 540.61 157.15 537.31C166 534.02 172.78 526.43 168.04 517.21C163.3 507.98 147.02 497.14 132.49 487.69Z" id="arN5f7lqa"></path><path d="M250.39 523.65C250.68 523.65 250.91 523.88 250.91 524.17C250.91 528.26 250.91 540 250.91 544.09C250.91 544.38 250.68 544.61 250.39 544.61C212.67 544.61 100.03 544.61 62.31 544.61C62.02 544.61 61.79 544.38 61.79 544.09C61.79 540 61.79 528.26 61.79 524.17C61.79 523.88 62.02 523.65 62.31 523.65C100.03 523.65 212.67 523.65 250.39 523.65Z" id="g6ibEKNdt"></path><path d="M319.48 492.95C319.77 492.95 320 493.18 320 493.47C320 497.56 320 509.3 320 513.39C320 513.68 319.77 513.91 319.48 513.91C278.12 513.91 154.57 513.91 113.21 513.91C112.92 513.91 112.69 513.68 112.69 513.39C112.69 509.3 112.69 497.56 112.69 493.47C112.69 493.18 112.92 492.95 113.21 492.95C154.57 492.95 278.12 492.95 319.48 492.95Z" id="b2WVUXyM2y"></path></defs><g><g><g><use xlink:href="#b1le8UVd3k" opacity="1" fill="#f3f9ff" fill-opacity="0.65"></use><g><use xlink:href="#b1le8UVd3k" opacity="1" fill-opacity="0" stroke="#000000" stroke-width="1" stroke-opacity="0"></use></g></g><g><use xlink:href="#b4QPDJQ83V" opacity="1" fill="#fdfdfd" fill-opacity="0.85"></use><g><use xlink:href="#b4QPDJQ83V" opacity="1" fill-opacity="0" stroke="#000000" stroke-width="1" stroke-opacity="0"></use></g></g><g><use xlink:href="#b3RqSTBcM1" opacity="1" fill="#47516c" fill-opacity="1"></use><g><use xlink:href="#b3RqSTBcM1" opacity="1" fill-opacity="0" stroke="#000000" stroke-width="1" stroke-opacity="0"></use></g></g><g><use xlink:href="#b9uCyG4w" opacity="1" fill="#fdfdfd" fill-opacity="0.85"></use><g><use xlink:href="#b9uCyG4w" opacity="1" fill-opacity="0" stroke="#000000" stroke-width="1" stroke-opacity="0"></use></g></g><g><use xlink:href="#arN5f7lqa" opacity="1" fill="#fdfdfd" fill-opacity="0.39"></use><g><use xlink:href="#arN5f7lqa" opacity="1" fill-opacity="0" stroke="#000000" stroke-width="1" stroke-opacity="0"></use></g></g><g><use xlink:href="#g6ibEKNdt" opacity="1" fill="#5969b7" fill-opacity="0.84"></use></g><g><use xlink:href="#b2WVUXyM2y" opacity="1" fill="#5e7bbc" fill-opacity="0.91"></use></g></g></g></svg>