<?xml version="1.0" encoding="UTF-8" standalone="no"?>
<!DOCTYPE svg PUBLIC "-//W3C//DTD SVG 1.1//EN" "http://www.w3.org/Graphics/SVG/1.1/DTD/svg11.dtd">
<svg version="1.1" xmlns="http://www.w3.org/2000/svg" xmlns:xlink="http://www.w3.org/1999/xlink" preserveAspectRatio="xMidYMid meet" viewBox="0 0 640 640" width="640" height="640"><defs><path d="M621.53 225.97C622.82 294.22 621.96 353.57 597.21 409.22C572.6 465 523.94 516.83 462.27 537.08C400.46 557.2 325.62 545.61 256.51 522.18C187.54 498.87 124.29 463.6 75.07 410.24C25.99 356.88 -9.21 285.44 18.55 237.43C46.17 189.42 136.74 164.84 203.42 133.26C270.1 101.68 313.03 63.22 377.42 40.42C441.81 17.63 527.66 10.62 572.31 45.64C616.95 80.66 620.24 157.71 621.53 225.97Z" id="e2ooiB8aDR"></path><path d="M573.4 403.57C550.13 448.08 528.39 485.95 489.79 511.59C451.26 537.36 395.85 550.67 341.77 538.26C287.62 525.71 234.83 487.36 190.61 443.74C146.45 400.26 110.89 351.43 92.42 296.74C74.07 242.1 72.69 181.55 110.85 162.08C148.91 142.55 226.51 164.1 288.43 171.28C350.35 178.45 396.66 171.4 453.72 183.29C510.78 195.18 578.54 226.1 600.04 267.09C621.55 308.08 596.67 359.07 573.4 403.57Z" id="gVEdBWIg0"></path><path d="M134.03 128.58C128.18 139.67 122.87 149.2 115.27 156.71C107.66 164.25 97.77 169.71 89.21 169.3C80.65 168.87 73.44 162.53 67.9 154.63C62.37 146.76 58.51 137.29 57.79 125.75C57.08 114.21 59.49 100.58 66.75 94.48C74 88.38 86.12 89.81 96.22 88.69C106.32 87.57 114.42 83.92 123.5 84.08C132.57 84.23 142.63 88.22 144.46 96.54C146.29 104.85 139.88 117.48 134.03 128.58Z" id="b2Vha5dR9H"></path><path d="M144.78 190.75C144.78 190.61 144.88 190.51 145.02 190.5C146.89 190.5 152.27 190.48 154.15 190.47C154.28 190.47 154.39 190.58 154.39 190.71C154.53 230.86 154.95 351.07 155.09 391.22C155.09 391.35 154.98 391.46 154.85 391.46C152.97 391.46 147.59 391.48 145.72 391.49C145.58 391.49 145.48 391.38 145.48 391.25C145.34 351.1 144.92 230.89 144.78 190.75Z" id="f15jzrHk1J"></path><path d="M376.17 100.9L379.06 101.32L381.91 101.85L384.72 102.49L387.49 103.24L390.22 104.1L392.89 105.06L395.52 106.12L398.1 107.28L400.62 108.54L403.08 109.89L405.49 111.33L407.84 112.86L410.12 114.48L412.34 116.19L414.48 117.98L416.56 119.85L418.57 121.79L420.5 123.81L422.35 125.91L424.13 128.08L425.82 130.31L427.43 132.61L428.95 134.98L430.38 137.4L431.72 139.89L432.97 142.43L434.12 145.03L435.17 147.68L436.12 150.37L436.97 153.12L437.72 155.91L438.35 158.75L438.88 161.62L439.29 164.53L439.59 167.48L439.78 170.46L439.84 173.47L439.84 212.85L441.91 212.89L443.96 213.02L445.98 213.23L447.98 213.52L449.96 213.89L451.9 214.33L453.82 214.85L455.71 215.44L457.56 216.11L459.38 216.84L461.16 217.65L462.91 218.52L464.61 219.45L466.28 220.45L467.9 221.51L469.49 222.63L471.02 223.81L472.51 225.05L473.95 226.35L475.33 227.69L476.67 229.09L477.95 230.54L479.18 232.04L480.35 233.59L481.47 235.18L482.52 236.82L483.51 238.5L484.44 240.22L485.3 241.98L486.1 243.78L486.83 245.61L487.49 247.48L488.07 249.38L488.59 251.31L489.03 253.28L489.4 255.27L489.68 257.28L489.89 259.32L490.02 261.39L490.06 263.47L490.06 387.22L490.02 389.31L489.89 391.37L489.68 393.41L489.4 395.43L489.03 397.42L488.59 399.38L488.07 401.31L487.49 403.22L486.83 405.08L486.1 406.92L485.3 408.72L484.44 410.48L483.51 412.2L482.52 413.88L481.47 415.51L480.35 417.11L479.18 418.65L477.95 420.15L476.67 421.6L475.33 423L473.95 424.35L472.51 425.64L471.02 426.88L469.49 428.06L467.9 429.18L466.28 430.25L464.61 431.25L462.91 432.18L461.16 433.05L459.38 433.85L457.56 434.59L455.71 435.25L453.82 435.85L451.9 436.37L449.96 436.81L447.98 437.18L445.98 437.47L443.96 437.68L441.91 437.8L439.84 437.85L250.12 437.85L248.05 437.8L246 437.68L243.98 437.47L241.98 437.18L240 436.81L238.06 436.37L236.14 435.85L234.25 435.25L232.4 434.59L230.58 433.85L228.8 433.05L227.05 432.18L225.35 431.25L223.68 430.25L222.06 429.18L220.48 428.06L218.94 426.88L217.45 425.64L216.01 424.35L214.63 423L213.29 421.6L212.01 420.15L210.78 418.65L209.61 417.11L208.49 415.51L207.44 413.88L206.45 412.2L205.52 410.48L204.66 408.72L203.86 406.92L203.13 405.08L202.47 403.22L201.89 401.31L201.37 399.38L200.93 397.42L200.57 395.43L200.28 393.41L200.07 391.37L199.94 389.31L199.9 387.22L199.9 263.47L199.94 261.39L200.07 259.32L200.28 257.28L200.57 255.27L200.93 253.28L201.37 251.31L201.89 249.38L202.47 247.48L203.13 245.61L203.86 243.78L204.66 241.98L205.52 240.22L206.45 238.5L207.44 236.82L208.49 235.18L209.61 233.59L210.78 232.04L212.01 230.54L213.29 229.09L214.63 227.69L216.01 226.35L217.45 225.05L218.94 223.81L220.48 222.63L222.06 221.51L223.68 220.45L225.35 219.45L227.05 218.52L228.8 217.65L230.58 216.84L232.4 216.11L234.25 215.44L236.14 214.85L238.06 214.33L240 213.89L241.98 213.52L243.98 213.23L246 213.02L248.05 212.89L250.12 212.85L250.12 173.47L250.18 170.46L250.37 167.48L250.67 164.53L251.08 161.62L251.61 158.75L252.24 155.91L252.99 153.12L253.84 150.37L254.79 147.68L255.84 145.03L256.99 142.43L258.24 139.89L259.58 137.4L261.01 134.98L262.53 132.61L264.14 130.31L265.83 128.08L267.61 125.91L269.46 123.81L271.39 121.79L273.4 119.85L275.48 117.98L277.62 116.19L279.84 114.48L282.12 112.86L284.47 111.33L286.88 109.89L289.34 108.54L291.86 107.28L294.44 106.12L297.07 105.06L299.74 104.1L302.47 103.24L305.24 102.49L308.05 101.85L310.9 101.32L313.79 100.9L316.71 100.6L319.67 100.41L322.66 100.35L367.3 100.35L370.29 100.41L373.25 100.6L373.25 100.6L376.17 100.9ZM211.09 388.84L211.19 390.45L211.36 392.04L211.58 393.61L211.86 395.15L212.2 396.68L212.61 398.18L213.06 399.66L213.58 401.11L214.14 402.54L214.76 403.94L215.43 405.31L216.16 406.64L216.93 407.95L217.75 409.22L218.61 410.46L219.52 411.67L220.48 412.83L221.48 413.96L222.52 415.05L223.6 416.1L224.71 417.1L225.87 418.07L227.07 418.98L228.29 419.86L229.56 420.68L230.85 421.46L232.18 422.19L233.54 422.86L234.93 423.49L236.34 424.06L237.78 424.58L239.25 425.04L240.74 425.44L242.25 425.79L243.79 426.07L245.34 426.3L246.92 426.46L248.51 426.56L250.12 426.6L439.84 426.6L441.45 426.56L443.04 426.46L444.62 426.3L446.17 426.07L447.71 425.79L449.22 425.44L450.71 425.04L452.18 424.58L453.62 424.06L455.03 423.49L456.42 422.86L457.78 422.19L459.11 421.46L460.4 420.68L461.67 419.86L462.9 418.98L464.09 418.07L465.25 417.1L466.36 416.1L467.44 415.05L468.48 413.96L469.48 412.83L470.44 411.67L471.35 410.46L472.21 409.22L473.03 407.95L473.8 406.64L474.53 405.31L475.2 403.94L475.82 402.54L476.38 401.11L476.9 399.66L477.35 398.18L477.76 396.68L478.1 395.15L478.38 393.61L478.61 392.04L478.77 390.45L478.87 388.84L478.9 387.22L478.9 381.6L211.06 381.6L211.06 387.22L211.06 387.22L211.09 388.84ZM246.92 224.23L245.34 224.4L243.79 224.62L242.25 224.91L240.74 225.25L239.25 225.66L237.78 226.12L236.34 226.64L234.93 227.21L233.54 227.83L232.18 228.51L230.85 229.24L229.56 230.01L228.29 230.84L227.07 231.71L225.87 232.63L224.71 233.59L223.6 234.6L222.52 235.65L221.48 236.74L220.48 237.86L219.52 239.03L218.61 240.23L217.75 241.47L216.93 242.75L216.16 244.05L215.43 245.39L214.76 246.76L214.14 248.16L213.58 249.58L213.06 251.04L212.61 252.51L212.2 254.02L211.86 255.54L211.58 257.09L211.36 258.66L211.19 260.25L211.09 261.85L211.06 263.47L211.06 370.35L478.9 370.35L478.9 263.47L478.87 261.85L478.77 260.25L478.61 258.66L478.38 257.09L478.1 255.54L477.76 254.02L477.35 252.51L476.9 251.04L476.38 249.58L475.82 248.16L475.2 246.76L474.53 245.39L473.8 244.05L473.03 242.75L472.21 241.47L471.35 240.23L470.44 239.03L469.48 237.86L468.48 236.74L467.44 235.65L466.36 234.6L465.25 233.59L464.09 232.63L462.9 231.71L461.67 230.84L460.4 230.01L459.11 229.24L457.78 228.51L456.42 227.83L455.03 227.21L453.62 226.64L452.18 226.12L450.71 225.66L449.22 225.25L447.71 224.91L446.17 224.62L444.62 224.4L443.04 224.23L441.45 224.13L439.84 224.1L250.12 224.1L248.51 224.13L248.51 224.13L246.92 224.23ZM348.84 258.04L350.1 258.21L351.35 258.43L352.58 258.69L353.8 259L354.99 259.35L356.17 259.75L357.33 260.19L358.47 260.67L359.59 261.19L360.68 261.75L361.75 262.35L362.8 262.99L363.82 263.67L364.82 264.38L365.79 265.13L366.73 265.91L367.64 266.72L368.53 267.57L369.38 268.45L370.2 269.36L370.98 270.3L371.74 271.27L372.46 272.27L373.14 273.3L373.78 274.35L374.39 275.43L374.96 276.53L375.49 277.66L375.99 278.81L376.43 279.98L376.84 281.18L377.21 282.39L377.53 283.63L377.8 284.88L378.03 286.15L378.21 287.44L378.34 288.74L378.43 290.05L378.46 291.35L378.45 292.64L378.38 293.92L378.27 295.19L378.11 296.45L377.91 297.7L377.66 298.93L377.37 300.15L377.03 301.35L376.65 302.53L376.23 303.7L375.76 304.84L375.26 305.97L374.72 307.08L374.13 308.16L373.51 309.22L372.86 310.26L372.16 311.27L371.43 312.25L370.67 313.21L369.87 314.14L369.04 315.04L368.17 315.91L367.28 316.75L366.35 317.55L365.39 318.32L364.4 319.06L363.39 319.76L362.35 320.43L361.28 321.05L360.18 321.64L359.06 322.19L357.91 322.7L356.74 323.17L355.55 323.59L354.33 323.97L353.1 324.31L351.84 324.6L350.56 324.84L350.56 353.47L350.56 353.7L350.54 353.93L350.52 354.16L350.49 354.39L350.45 354.61L350.4 354.82L350.34 355.04L350.28 355.25L350.2 355.46L350.12 355.66L350.03 355.86L349.94 356.06L349.83 356.25L349.72 356.44L349.61 356.62L349.48 356.79L349.35 356.97L349.22 357.13L349.07 357.29L348.93 357.45L348.77 357.6L348.61 357.74L348.45 357.88L348.28 358.01L348.1 358.14L347.92 358.26L347.73 358.37L347.54 358.47L347.35 358.57L347.15 358.66L346.95 358.74L346.74 358.81L346.53 358.88L346.32 358.93L346.1 358.98L345.89 359.02L345.66 359.06L345.44 359.08L345.21 359.09L344.98 359.1L344.75 359.09L344.52 359.08L344.3 359.06L344.07 359.02L343.86 358.98L343.64 358.93L343.43 358.88L343.22 358.81L343.01 358.74L342.81 358.66L342.61 358.57L342.42 358.47L342.23 358.37L342.04 358.26L341.86 358.14L341.68 358.01L341.51 357.88L341.35 357.74L341.19 357.6L341.03 357.45L340.89 357.29L340.74 357.13L340.61 356.97L340.48 356.79L340.35 356.62L340.24 356.44L340.13 356.25L340.02 356.06L339.93 355.86L339.84 355.66L339.76 355.46L339.68 355.25L339.62 355.04L339.56 354.82L339.51 354.61L339.47 354.39L339.44 354.16L339.42 353.93L339.4 353.7L339.4 353.47L339.4 324.84L338.12 324.6L336.86 324.31L335.63 323.97L334.41 323.59L333.22 323.17L332.05 322.7L330.9 322.19L329.78 321.64L328.68 321.05L327.61 320.43L326.57 319.76L325.56 319.06L324.57 318.32L323.61 317.55L322.68 316.75L321.79 315.91L320.92 315.04L320.09 314.14L319.29 313.21L318.53 312.25L317.8 311.27L317.1 310.26L316.45 309.22L315.83 308.16L315.24 307.08L314.7 305.97L314.2 304.84L313.73 303.7L313.31 302.53L312.93 301.35L312.59 300.15L312.3 298.93L312.05 297.7L311.85 296.45L311.69 295.19L311.58 293.92L311.51 292.64L311.5 291.35L311.53 290.05L311.62 288.74L311.75 287.44L311.93 286.15L312.16 284.88L312.44 283.63L312.75 282.39L313.12 281.18L313.53 279.98L313.97 278.81L314.47 277.66L315 276.53L315.57 275.43L316.18 274.35L316.82 273.3L317.51 272.27L318.22 271.27L318.98 270.3L319.76 269.36L320.58 268.45L321.44 267.57L322.32 266.72L323.23 265.91L324.17 265.13L325.14 264.38L326.14 263.67L327.16 262.99L328.21 262.35L329.28 261.75L330.37 261.19L331.49 260.67L332.63 260.19L333.79 259.75L334.97 259.35L336.16 259L337.38 258.69L338.61 258.43L339.86 258.21L341.12 258.04L342.39 257.92L343.68 257.84L344.98 257.82L346.28 257.84L347.57 257.92L347.57 257.92L348.84 258.04ZM341.11 269.44L339.86 269.69L338.64 270.02L337.45 270.41L336.29 270.87L335.16 271.39L334.07 271.96L333.01 272.6L332 273.3L331.02 274.04L330.09 274.84L329.2 275.69L328.36 276.59L327.56 277.53L326.82 278.51L326.14 279.54L325.5 280.6L324.93 281.7L324.41 282.84L323.96 284.01L323.57 285.21L323.25 286.44L322.99 287.7L322.81 288.97L322.7 290.28L322.66 291.6L322.7 292.92L322.81 294.22L322.99 295.5L323.25 296.76L323.57 297.99L323.96 299.19L324.41 300.36L324.93 301.49L325.5 302.59L326.14 303.66L326.82 304.69L327.56 305.67L328.36 306.61L329.2 307.51L330.09 308.36L331.02 309.16L332 309.9L333.01 310.6L334.07 311.23L335.16 311.81L336.29 312.33L337.45 312.79L338.64 313.18L339.86 313.5L341.11 313.76L342.38 313.95L343.67 314.06L344.98 314.1L346.29 314.06L347.58 313.95L348.85 313.76L350.1 313.5L351.32 313.18L352.51 312.79L353.67 312.33L354.8 311.81L355.89 311.23L356.95 310.6L357.96 309.9L358.94 309.16L359.87 308.36L360.76 307.51L361.6 306.61L362.4 305.67L363.14 304.69L363.82 303.66L364.46 302.59L365.03 301.49L365.55 300.36L366 299.19L366.39 297.99L366.71 296.76L366.97 295.5L367.15 294.22L367.26 292.92L367.3 291.6L367.26 290.28L367.15 288.97L366.97 287.7L366.71 286.44L366.39 285.21L366 284.01L365.55 282.84L365.03 281.7L364.46 280.6L363.82 279.54L363.14 278.51L362.4 277.53L361.6 276.59L360.76 275.69L359.87 274.84L358.94 274.04L357.96 273.3L356.95 272.6L355.89 271.96L354.8 271.39L353.67 270.87L352.51 270.41L351.32 270.02L350.1 269.69L348.85 269.44L347.58 269.25L346.29 269.14L344.98 269.1L343.67 269.14L342.38 269.25L342.38 269.25L341.11 269.44ZM319.46 134.23L317.88 134.4L316.33 134.62L314.79 134.91L313.28 135.25L311.79 135.66L310.32 136.12L308.88 136.64L307.47 137.21L306.08 137.83L304.72 138.51L303.39 139.24L302.1 140.01L300.83 140.84L299.6 141.71L298.41 142.63L297.25 143.59L296.14 144.6L295.06 145.65L294.02 146.74L293.02 147.86L292.06 149.03L291.15 150.23L290.29 151.47L289.47 152.75L288.7 154.05L287.97 155.39L287.3 156.76L286.68 158.16L286.12 159.58L285.6 161.04L285.15 162.52L284.74 164.02L284.4 165.54L284.12 167.09L283.89 168.66L283.73 170.25L283.63 171.85L283.6 173.47L283.6 212.85L406.36 212.85L406.36 173.47L406.33 171.85L406.23 170.25L406.07 168.66L405.84 167.09L405.56 165.54L405.22 164.02L404.81 162.52L404.36 161.04L403.84 159.58L403.28 158.16L402.66 156.76L401.99 155.39L401.26 154.05L400.49 152.75L399.67 151.47L398.81 150.23L397.9 149.03L396.94 147.86L395.94 146.74L394.9 145.65L393.82 144.6L392.71 143.59L391.55 142.63L390.36 141.71L389.13 140.84L387.86 140.01L386.57 139.24L385.24 138.51L383.88 137.83L382.49 137.21L381.08 136.64L379.64 136.12L378.17 135.66L376.68 135.25L375.17 134.91L373.63 134.62L372.08 134.4L370.5 134.23L368.91 134.13L367.3 134.1L322.66 134.1L321.05 134.13L321.05 134.13L319.46 134.23ZM317.63 111.81L315.15 112.07L312.71 112.42L310.3 112.87L307.92 113.41L305.57 114.05L303.27 114.77L301 115.58L298.78 116.48L296.6 117.46L294.47 118.53L292.38 119.67L290.34 120.89L288.36 122.19L286.43 123.56L284.55 125L282.73 126.52L280.98 128.1L279.28 129.74L277.65 131.46L276.08 133.23L274.58 135.06L273.15 136.95L271.79 138.9L270.5 140.9L269.29 142.95L268.15 145.05L267.1 147.21L266.12 149.4L265.23 151.64L264.43 153.93L263.71 156.25L263.08 158.61L262.54 161.01L262.09 163.44L261.74 165.91L261.49 168.4L261.33 170.93L261.28 173.47L261.28 212.85L272.44 212.85L272.44 173.47L272.48 171.39L272.61 169.32L272.82 167.28L273.11 165.27L273.47 163.28L273.91 161.32L274.43 159.38L275.01 157.48L275.67 155.61L276.4 153.78L277.2 151.98L278.06 150.22L278.99 148.5L279.98 146.82L281.03 145.18L282.15 143.59L283.32 142.04L284.55 140.54L285.83 139.09L287.17 137.69L288.55 136.35L289.99 135.05L291.48 133.82L293.01 132.63L294.6 131.51L296.22 130.45L297.89 129.45L299.59 128.52L301.34 127.65L303.12 126.84L304.94 126.11L306.79 125.44L308.68 124.85L310.6 124.33L312.54 123.89L314.52 123.52L316.52 123.23L318.54 123.02L320.59 122.89L322.66 122.85L367.3 122.85L369.37 122.89L371.42 123.02L373.44 123.23L375.44 123.52L377.42 123.89L379.36 124.33L381.28 124.85L383.17 125.44L385.02 126.11L386.84 126.84L388.62 127.65L390.37 128.52L392.07 129.45L393.74 130.45L395.36 131.51L396.95 132.63L398.48 133.82L399.97 135.05L401.41 136.35L402.79 137.69L404.13 139.09L405.41 140.54L406.64 142.04L407.81 143.59L408.93 145.18L409.98 146.82L410.97 148.5L411.9 150.22L412.76 151.98L413.56 153.78L414.29 155.61L414.95 157.48L415.53 159.38L416.05 161.32L416.49 163.28L416.86 165.27L417.14 167.28L417.35 169.32L417.48 171.39L417.52 173.47L417.52 212.85L428.68 212.85L428.68 173.47L428.63 170.93L428.47 168.4L428.22 165.91L427.87 163.44L427.42 161.01L426.88 158.61L426.25 156.25L425.53 153.93L424.73 151.64L423.84 149.4L422.86 147.21L421.81 145.05L420.67 142.95L419.46 140.9L418.18 138.9L416.81 136.95L415.38 135.06L413.88 133.23L412.31 131.46L410.68 129.74L408.98 128.1L407.23 126.52L405.41 125L403.53 123.56L401.6 122.19L399.62 120.89L397.58 119.67L395.49 118.53L393.36 117.46L391.18 116.48L388.96 115.58L386.69 114.77L384.39 114.05L382.04 113.41L379.66 112.87L377.25 112.42L374.81 112.07L372.33 111.81L369.83 111.65L367.3 111.6L322.66 111.6L320.13 111.65L320.13 111.65L317.63 111.81Z" id="b14N9vi0Zm"></path><path d="M169.59 223.33C169.59 223.2 169.7 223.09 169.83 223.09C171.7 223.1 177.09 223.13 178.96 223.14C179.09 223.14 179.2 223.25 179.2 223.39C178.95 263.53 178.22 383.74 177.98 423.89C177.98 424.02 177.87 424.13 177.74 424.12C175.86 424.11 170.48 424.08 168.61 424.07C168.48 424.07 168.37 423.96 168.37 423.83C168.61 383.68 169.34 263.48 169.59 223.33Z" id="bQ31uweuP"></path><path d="M529.57 126.46C525.84 133.62 522.33 139.72 515.94 143.74C509.56 147.79 500.29 149.74 491.14 147.5C481.97 145.24 472.93 138.77 465.31 131.48C457.7 124.21 451.52 116.1 448.19 107.1C444.88 98.12 444.4 88.23 450.75 85.21C457.07 82.18 470.22 86 480.67 87.42C491.12 88.84 498.88 87.87 508.54 90.04C518.19 92.21 529.72 97.52 533.5 104.3C537.29 111.07 533.31 119.29 529.57 126.46Z" id="i4iKryIzG1"></path><path d="M501.43 75.14C499.82 78.14 498.37 80.72 496.28 82.75C494.2 84.78 491.5 86.26 489.17 86.14C486.83 86.02 484.87 84.29 483.37 82.15C481.87 80.01 480.82 77.44 480.64 74.31C480.45 71.18 481.12 67.49 483.11 65.84C485.09 64.19 488.39 64.59 491.15 64.29C493.91 64 496.12 63.02 498.59 63.07C501.07 63.12 503.81 64.2 504.3 66.46C504.79 68.71 503.03 72.13 501.43 75.14Z" id="a1ob3YeUUe"></path></defs><g><g><g><use xlink:href="#e2ooiB8aDR" opacity="1" fill="#f3f9ff" fill-opacity="0.65"></use><g><use xlink:href="#e2ooiB8aDR" opacity="1" fill-opacity="0" stroke="#000000" stroke-width="1" stroke-opacity="0"></use></g></g><g><use xlink:href="#gVEdBWIg0" opacity="1" fill="#fdfdfd" fill-opacity="0.85"></use><g><use xlink:href="#gVEdBWIg0" opacity="1" fill-opacity="0" stroke="#000000" stroke-width="1" stroke-opacity="0"></use></g></g><g><use xlink:href="#b2Vha5dR9H" opacity="1" fill="#fdfdfd" fill-opacity="0.85"></use><g><use xlink:href="#b2Vha5dR9H" opacity="1" fill-opacity="0" stroke="#000000" stroke-width="1" stroke-opacity="0"></use></g></g><g><use xlink:href="#f15jzrHk1J" opacity="1" fill="#7383ce" fill-opacity="0.84"></use></g><g><use xlink:href="#b14N9vi0Zm" opacity="1" fill="#000000" fill-opacity="1"></use><g><use xlink:href="#b14N9vi0Zm" opacity="1" fill-opacity="0" stroke="#000000" stroke-width="1" stroke-opacity="0"></use></g></g><g><use xlink:href="#bQ31uweuP" opacity="1" fill="#7382cd" fill-opacity="0.84"></use></g><g><use xlink:href="#i4iKryIzG1" opacity="1" fill="#b8bafc" fill-opacity="0.85"></use><g><use xlink:href="#i4iKryIzG1" opacity="1" fill-opacity="0" stroke="#000000" stroke-width="1" stroke-opacity="0"></use></g></g><g><use xlink:href="#a1ob3YeUUe" opacity="1" fill="#7577f8" fill-opacity="0.85"></use><g><use xlink:href="#a1ob3YeUUe" opacity="1" fill-opacity="0" stroke="#000000" stroke-width="1" stroke-opacity="0"></use></g></g></g></g></svg>