<?xml version="1.0" encoding="iso-8859-1"?>
<!-- Generator: Adobe Illustrator 19.0.0, SVG Export Plug-In . SVG Version: 6.00 Build 0)  -->
<svg version="1.1" id="Layer_1" xmlns="http://www.w3.org/2000/svg" xmlns:xlink="http://www.w3.org/1999/xlink" x="0px" y="0px"
	 viewBox="0 0 512 512" style="enable-background:new 0 0 512 512;" xml:space="preserve">
<g>
	<g>
		<polygon points="483.342,245.549 472.425,257.458 495.655,278.753 495.655,291.03 409.487,291.03 409.487,278.753 
			432.718,257.458 421.801,245.549 393.331,271.647 393.331,307.187 511.812,307.187 511.812,271.647 		"/>
	</g>
</g>
<g>
	<g>
		<path d="M476.684,172.338c0,4.666-0.98,7.967-2.915,9.812c-4.084,3.897-26.853,2.826-29.174,2.826v16.325h21.979v17.543
			c0,7.968-6.483,14.451-14.451,14.451h-0.18c-7.968,0-14.451-6.483-14.451-14.451v-16.673h-16.157v16.673
			c0,16.876,13.731,30.607,30.608,30.607h0.18c16.877,0,30.608-13.731,30.608-30.608v-23.17c0.754-0.563,1.49-1.164,2.192-1.833
			c5.254-5.012,7.918-12.247,7.918-21.502H476.684z"/>
	</g>
</g>
<g>
	<g>
		<polygon points="90.199,245.549 79.282,257.458 102.513,278.753 102.513,291.03 16.345,291.03 16.345,278.753 39.575,257.458 
			28.658,245.549 0.188,271.647 0.188,307.187 118.669,307.187 118.669,271.647 		"/>
	</g>
</g>
<g>
	<g>
		<path d="M83.542,172.338c0,4.666-0.98,7.967-2.915,9.812c-4.085,3.897-26.853,2.826-29.174,2.826v16.156h21.979v17.71
			c0,7.968-6.483,14.451-14.451,14.451h-0.18c-7.968,0-14.452-6.483-14.452-14.451V202.17H28.193v16.672
			c0,16.877,13.731,30.608,30.608,30.608h0.18c16.877,0,30.608-13.731,30.608-30.608v-23.17c0.754-0.563,1.49-1.164,2.192-1.833
			c5.254-5.012,7.918-12.247,7.918-21.502H83.542z"/>
	</g>
</g>
<g>
	<g>
		<polygon points="388.018,450.362 377.101,462.271 400.332,483.566 400.332,495.843 314.164,495.843 314.164,483.566 
			337.395,462.271 326.477,450.362 298.007,476.46 298.007,512 416.488,512 416.488,476.46 		"/>
	</g>
</g>
<g>
	<g>
		<path d="M381.361,377.15c0,4.666-0.98,7.967-2.915,9.812c-4.085,3.897-29.174,2.826-29.174,2.826v16.157
			c0,0,19.686,0.396,21.979,0.168v17.543c0,7.967-6.483,14.45-14.451,14.45h-0.18c-7.968,0-14.451-6.483-14.451-14.45v-16.672
			h-16.157v16.672c0,16.876,13.731,30.606,30.608,30.606h0.18c16.877,0,30.608-13.73,30.608-30.607v-23.17
			c0.754-0.563,1.49-1.164,2.192-1.833c5.254-5.012,7.918-12.247,7.918-21.502H381.361z"/>
	</g>
</g>
<g>
	<g>
		<polygon points="185.523,450.362 174.605,462.271 197.836,483.566 197.836,495.843 111.668,495.843 111.668,483.566 
			134.899,462.271 123.982,450.362 95.512,476.46 95.512,512 213.993,512 213.993,476.46 		"/>
	</g>
</g>
<g>
	<g>
		<path d="M178.865,377.15c0,4.666-0.98,7.967-2.915,9.812c-4.085,3.897-26.853,2.826-29.174,2.826v16.157l21.979,0.168v17.543
			c0,7.967-6.483,14.45-14.451,14.45h-0.18c-7.968,0-14.452-6.483-14.452-14.45v-16.672h-16.157v16.672
			c0,16.876,13.731,30.606,30.608,30.606h0.18c16.877,0,30.608-13.73,30.608-30.607v-23.17c0.754-0.563,1.49-1.164,2.192-1.833
			c5.254-5.012,7.918-12.247,7.918-21.502H178.865z"/>
	</g>
</g>
<g>
	<g>
		<polygon points="257.305,348.864 202.699,377.571 210.218,391.872 257.305,367.118 304.394,391.872 311.911,377.571 		"/>
	</g>
</g>
<g>
	<g>
		<polygon points="220.912,155.673 198.725,200.63 110.869,211.903 112.925,227.929 209.376,215.551 235.4,162.824 		"/>
	</g>
</g>
<g>
	<g>
		<polygon points="315.887,200.63 293.7,155.673 279.212,162.824 305.234,215.551 401.687,227.929 403.743,211.903 		"/>
	</g>
</g>
<g>
	<g>
		<polygon points="128.306,242.354 117.029,253.924 162.458,298.205 151.424,362.533 167.349,365.263 179.818,292.565 		"/>
	</g>
</g>
<g>
	<g>
		<polygon points="397.582,253.924 386.305,242.354 334.794,292.565 347.263,365.263 363.187,362.533 352.154,298.205 		"/>
	</g>
</g>
<g>
	<g>
		<g>
			<rect x="200.529" y="249.87" width="16.157" height="16.157"/>
			<rect x="295.314" y="249.87" width="16.156" height="16.157"/>
			<rect x="247.922" y="249.87" width="16.157" height="16.157"/>
		</g>
	</g>
</g>
<g>
	<g>
		<polygon points="286.232,73.213 275.315,85.121 298.546,106.417 298.546,118.694 212.377,118.694 212.377,106.417 235.608,85.121 
			224.691,73.213 196.221,99.31 196.221,134.85 314.702,134.85 314.702,99.31 		"/>
	</g>
</g>
<g>
	<g>
		<path d="M279.573,0c0,4.666-0.98,7.967-2.915,9.812c-4.085,3.897-26.853,2.826-29.174,2.826v16.157h21.979v17.71
			c0,7.968-6.483,14.451-14.451,14.451h-0.18c-7.968,0-14.452-6.483-14.452-14.451V29.833h-16.157v16.672
			c0.001,16.878,13.732,30.609,30.609,30.609h0.18c16.877,0,30.608-13.731,30.608-30.608V23.335c0.754-0.563,1.49-1.164,2.192-1.833
			C293.066,16.49,295.73,9.256,295.73,0H279.573z"/>
	</g>
</g>
<g>
</g>
<g>
</g>
<g>
</g>
<g>
</g>
<g>
</g>
<g>
</g>
<g>
</g>
<g>
</g>
<g>
</g>
<g>
</g>
<g>
</g>
<g>
</g>
<g>
</g>
<g>
</g>
<g>
</g>
</svg>
